<svg class="main-svg" xmlns="http://www.w3.org/2000/svg" xmlns:xlink="http://www.w3.org/1999/xlink" width="700" height="500" style="" viewBox="0 0 700 500"><rect x="0" y="0" width="700" height="500" style="fill: rgb(255, 255, 255); fill-opacity: 1;"/><defs id="defs-b3bbe8"><g class="clips"><clipPath id="clipb3bbe8xyplot" class="plotclip"><rect width="540" height="320"/></clipPath><clipPath class="axesclip" id="clipb3bbe8x"><rect x="80" y="0" width="540" height="500"/></clipPath><clipPath class="axesclip" id="clipb3bbe8y"><rect x="0" y="100" width="700" height="320"/></clipPath><clipPath class="axesclip" id="clipb3bbe8xy"><rect x="80" y="100" width="540" height="320"/></clipPath></g><g class="gradients"/></defs><g class="bglayer"/><g class="layer-below"><g class="imagelayer"/><g class="shapelayer"/></g><g class="cartesianlayer"><g class="subplot xy"><g class="layer-subplot"><g class="shapelayer"/><g class="imagelayer"/></g><g class="gridlayer"><g class="x"><path class="xgrid crisp" transform="translate(157.25,0)" d="M0,100v320" style="stroke: rgb(235, 240, 248); stroke-opacity: 1; stroke-width: 1px;"/><path class="xgrid crisp" transform="translate(234.51,0)" d="M0,100v320" style="stroke: rgb(235, 240, 248); stroke-opacity: 1; stroke-width: 1px;"/><path class="xgrid crisp" transform="translate(311.76,0)" d="M0,100v320" style="stroke: rgb(235, 240, 248); stroke-opacity: 1; stroke-width: 1px;"/><path class="xgrid crisp" transform="translate(389.01,0)" d="M0,100v320" style="stroke: rgb(235, 240, 248); stroke-opacity: 1; stroke-width: 1px;"/><path class="xgrid crisp" transform="translate(466.27,0)" d="M0,100v320" style="stroke: rgb(235, 240, 248); stroke-opacity: 1; stroke-width: 1px;"/><path class="xgrid crisp" transform="translate(543.52,0)" d="M0,100v320" style="stroke: rgb(235, 240, 248); stroke-opacity: 1; stroke-width: 1px;"/></g><g class="y"><path class="ygrid crisp" transform="translate(0,388.51)" d="M80,0h540" style="stroke: rgb(235, 240, 248); stroke-opacity: 1; stroke-width: 1px;"/><path class="ygrid crisp" transform="translate(0,320)" d="M80,0h540" style="stroke: rgb(235, 240, 248); stroke-opacity: 1; stroke-width: 1px;"/><path class="ygrid crisp" transform="translate(0,251.5)" d="M80,0h540" style="stroke: rgb(235, 240, 248); stroke-opacity: 1; stroke-width: 1px;"/><path class="ygrid crisp" transform="translate(0,182.99)" d="M80,0h540" style="stroke: rgb(235, 240, 248); stroke-opacity: 1; stroke-width: 1px;"/><path class="ygrid crisp" transform="translate(0,114.48)" d="M80,0h540" style="stroke: rgb(235, 240, 248); stroke-opacity: 1; stroke-width: 1px;"/></g></g><g class="zerolinelayer"/><path class="xlines-below"/><path class="ylines-below"/><g class="overlines-below"/><g class="xaxislayer-below"/><g class="yaxislayer-below"/><g class="overaxes-below"/><g class="plot" transform="translate(80,100)" clip-path="url('#clipb3bbe8xyplot')"><g class="scatterlayer mlayer"><g class="trace scatter trace4ccefb" style="stroke-miterlimit: 2; opacity: 1;"><g class="fills"/><g class="errorbars"/><g class="lines"><path class="js-line" d="M0,132.97L0.77,127.31L1.55,130.7L2.32,120.36L3.09,147.09L3.86,143.15L4.64,143.16L5.41,142.58L6.18,128.77L6.95,147L7.73,136.17L8.5,156.64L9.27,136.41L10.82,157.04L11.59,144.78L12.36,164.88L13.13,156.49L13.91,156.3L14.68,143.69L15.45,143.14L16.22,173.07L17.77,158.75L18.54,150.54L19.31,164.76L20.09,155.87L20.86,154.9L21.63,149.98L23.18,173.32L23.95,154.64L25.49,163.58L26.27,152.84L27.04,147.82L27.81,158.12L28.58,160.95L29.36,168.7L30.13,153.85L30.9,168.01L32.45,141.67L33.22,143.9L34.76,162.58L35.54,157.37L37.08,136.57L37.85,154.69L38.63,158.98L39.4,156.65L40.17,132.32L40.94,142.23L42.49,153.58L43.26,145.14L44.03,151.13L44.81,150.73L45.58,148.02L46.35,131.35L47.12,150.02L47.9,132.24L48.67,142.43L49.44,141.04L50.99,128.93L51.76,155.28L52.53,123.98L53.3,138.12L54.08,145.44L54.85,130.45L55.62,139.06L56.39,139.01L57.17,138.22L57.94,154.91L59.48,135.87L60.26,131.02L61.8,130.69L62.58,135.1L63.35,135.58L64.12,131.15L65.67,140.44L66.44,137.06L67.21,148.46L67.98,141.32L69.53,137.11L70.3,136.99L71.07,159L71.85,140.79L72.62,130.44L73.39,138.62L74.16,138.1L74.94,157.56L75.71,150.16L76.48,165.38L77.25,142.77L78.03,142.02L79.57,155.36L80.34,166.17L81.12,156.12L81.89,169.91L82.66,157.09L83.43,161.03L84.21,158.48L84.98,179.36L85.75,182.74L86.52,179.95L87.3,170.85L88.07,184.04L89.61,191.02L90.39,185.17L91.16,186.08L91.93,180.93L93.48,184.94L94.25,210.4L95.02,196.34L95.79,206.2L96.57,185.02L97.34,209.92L98.11,208.4L98.88,199.46L99.66,202.42L100.43,224.47L101.2,213.71L101.97,221.42L103.52,207.9L104.29,209.14L105.06,226.14L105.84,221.9L106.61,213.23L107.38,229.59L108.93,216.84L109.7,235.12L110.47,220.12L111.24,221.21L112.02,240.79L112.79,236.54L113.56,208.8L114.33,218.9L115.88,254.3L116.65,223.22L118.2,232.83L118.97,220.65L119.74,231.65L120.52,221.83L121.29,216.73L122.06,201.59L124.38,217.44L125.15,209.41L125.92,202.04L126.7,211.73L128.24,197.51L129.01,215.54L129.79,176.3L130.56,204.58L131.33,203.88L132.1,196.15L132.88,178.71L133.65,188.02L134.42,189.18L135.19,182.48L135.97,179.28L136.74,165.83L137.51,179.06L138.28,176.53L139.06,173.88L139.83,167.13L140.6,148.63L141.37,157.48L142.15,156.87L142.92,143.34L143.69,144.43L144.46,137.11L146.01,136.44L146.78,132.51L148.33,104.85L149.1,119.4L149.87,117.15L150.64,100.83L151.42,110.84L152.19,104.41L152.96,103.57L153.73,69.43L155.28,104.07L156.05,94.66L157.6,72.77L158.37,62.85L159.14,66.01L159.91,47.23L160.69,55.09L161.46,53.04L162.23,55.77L163,25.31L163.78,55.2L164.55,43.5L165.32,53.78L166.09,47.82L167.64,27.85L168.41,39.43L169.18,48.72L169.96,30.33L170.73,18.95L171.5,21.27L172.27,33.29L173.05,60.65L173.82,18.58L174.59,25.26L175.36,33.49L176.14,30.66L176.91,16L177.68,37.39L179.23,19.75L180,41.93L180.77,33.5L181.55,67.07L182.32,31.34L183.09,36.63L183.86,32.56L184.64,58.43L185.41,53.7L186.18,43.59L186.95,30.22L187.73,50.77L188.5,47.42L189.27,52.81L190.82,69.94L191.59,62.13L193.91,88.53L194.68,73.62L196.22,104.43L197,90.47L197.77,87.52L198.54,105.66L199.31,108.05L200.09,124.08L200.86,118.12L201.63,125.61L202.4,109.3L203.18,130.43L204.72,135.99L205.49,169.97L207.04,147.16L207.81,143.11L209.36,178.89L210.13,168.86L212.45,203.18L213.22,195.92L213.99,194.56L214.76,197.17L215.54,197.76L216.31,213.1L217.08,221.79L217.85,210.15L220.17,234.61L220.94,250.18L221.72,243.48L222.49,253.82L223.26,250.92L224.03,261.33L224.81,249.61L225.58,262.31L226.35,265.84L227.12,285.47L228.67,266.6L229.44,268.74L230.99,281.61L231.76,281.4L232.53,283.55L233.3,265.42L234.85,288.91L235.62,272.55L236.39,267.12L237.17,301.6L237.94,266.81L238.71,290.94L239.48,283.95L240.26,284.76L241.03,292.04L241.8,280.3L242.58,304L243.35,280.95L244.12,293.07L244.89,270.65L245.67,274.58L246.44,271.29L247.21,280.98L247.98,263.88L248.76,281.9L249.53,272.85L251.07,254.34L251.85,268.1L253.39,236.71L254.16,259.36L254.94,254.77L255.71,245.07L256.48,220.5L257.25,248.06L258.8,203.56L259.57,221.44L260.34,209.63L261.12,211.75L261.89,211.39L262.66,198.01L263.43,201.55L264.21,187.38L264.98,189.36L265.75,167.58L266.52,177.84L267.3,163.38L268.07,155.96L268.84,162.7L270.39,138.16L271.16,143.77L271.93,158.87L272.7,138.34L273.48,123.43L274.25,127.33L275.02,127.13L275.79,124.88L277.34,112.77L278.11,96.7L278.88,93.59L279.66,84.27L280.43,104.78L281.2,96.38L282.75,72.54L283.52,80.81L284.29,85.3L285.06,67.26L285.84,70.9L286.61,55.23L287.38,63.63L288.15,46.16L289.7,50.54L290.47,32.31L292.02,59.01L292.79,34.92L293.56,33.61L294.33,19.65L295.11,41.05L295.88,37.03L297.42,28.34L298.2,36.48L298.97,27.53L299.74,28.31L300.52,25.17L301.29,34.7L302.06,36.35L302.83,27.9L303.61,23.27L304.38,39.79L305.15,21.66L305.92,36.2L306.7,39.13L307.47,24.29L309.01,53.61L309.79,42.16L310.56,50.86L311.33,50.67L312.1,52.2L312.88,62.41L313.65,45.92L314.42,63.52L315.19,47.37L315.97,67.21L316.74,71.92L317.51,66.98L319.06,81.73L319.83,74.18L320.6,72.29L321.37,79.05L322.15,89.29L322.92,88.74L323.69,87.05L324.46,99.08L325.24,100.22L326.01,116.33L326.78,123.73L327.55,107.76L328.33,101.83L329.1,125.25L329.87,142.22L330.64,124.19L331.42,127.03L332.19,124.48L333.73,151.01L334.51,134.65L335.28,155.91L336.05,149.6L337.6,174.1L338.37,150.13L339.14,184.14L339.91,184.58L340.69,181.85L341.46,173.59L342.23,176.4L343,192.97L343.78,185.41L344.55,190.29L346.87,197.79L347.64,212.78L348.41,198.44L349.18,208.18L349.96,217.84L350.73,200.09L351.5,190.59L352.27,199.61L353.05,217.84L353.82,203.84L355.36,213.16L356.14,211.83L356.91,233.03L357.68,225.99L358.45,211.4L359.23,224.6L360,239.81L360.77,208.77L361.55,231.76L362.32,199.36L363.86,226.36L364.64,213.86L365.41,225.27L366.18,224.2L366.95,205.61L367.73,206.37L368.5,202.69L369.27,216.43L370.82,189.95L371.59,219.2L372.36,219.56L373.13,204.07L374.68,218.71L375.45,197.94L376.22,212.15L377,195.92L377.77,182.91L378.54,193.83L379.31,199.74L380.09,189.84L380.86,205.61L381.63,194.54L383.18,183.12L383.95,180.75L384.72,192.45L385.49,175.18L386.27,165.85L387.04,180.07L387.81,177.2L388.58,169.22L389.36,172.72L390.13,160.92L390.9,183.89L391.67,156.36L392.45,179.16L393.22,156.55L393.99,130.97L394.76,141.14L395.54,144.98L396.31,164.61L397.85,150.37L398.63,116.04L399.4,167.63L400.17,150.95L400.94,147.94L401.72,140.81L402.49,143.01L403.26,152.36L404.03,129.88L404.81,136.81L405.58,151.62L406.35,142.31L407.12,139.57L407.9,145.91L408.67,143.63L409.44,123.28L410.21,125.51L410.99,119.8L411.76,138.23L412.53,136.94L414.08,141.17L414.85,149.15L415.62,131.21L416.39,137.59L417.17,133.47L417.94,136.91L419.48,146.68L420.26,151.55L421.03,147.32L421.8,150.77L423.35,157.06L424.12,145.27L424.89,161.87L425.67,143.15L426.44,159.89L427.21,151.35L427.98,158.05L428.76,135.83L429.53,155.72L430.3,139.86L431.85,158.25L432.62,141.59L433.39,145.11L434.16,169.56L434.94,161.26L435.71,164.98L436.48,166.41L437.25,172.71L438.03,163.79L438.8,166.93L439.57,154.37L440.34,166.09L441.89,158.66L442.66,174.23L443.43,178.5L444.21,173.41L444.98,162.34L445.75,172.52L446.52,168.48L447.3,177.84L448.84,164.21L449.61,159.46L450.39,156.92L451.16,157.45L451.93,165.41L452.7,165.54L453.48,170.89L454.25,160.01L455.79,184.54L456.57,155.29L457.34,150.77L458.11,175.32L459.66,149.41L460.43,154.89L461.2,153.64L461.97,156.83L463.52,146.28L464.29,130.89L465.06,146.74L465.84,120.61L466.61,160.43L467.38,133.99L468.15,140.72L468.93,132.38L469.7,142.95L470.47,133.5L471.24,130.05L472.02,136.58L472.79,130.05L473.56,130.26L475.11,126.04L475.88,116.67L476.65,130.93L477.42,114.98L478.2,101.9L478.97,109.43L479.74,120.9L480.52,119.5L481.29,99.48L482.06,109.9L483.61,93.87L484.38,99.71L485.15,74.16L485.92,94.4L487.47,96.56L488.24,92.47L489.01,84.79L489.79,85.65L490.56,95.62L491.33,80.29L492.1,88.91L492.88,88.3L493.65,79.99L494.42,61.41L495.19,74.87L495.97,67.12L496.74,89.04L497.51,68.94L498.28,77.18L499.06,67.92L499.83,60.38L500.6,100.63L502.15,74.04L502.92,85.34L503.69,74.49L504.46,76.8L505.24,79.86L506.01,74.71L506.78,80L507.55,74.52L508.33,79.63L509.1,67.13L509.87,91L510.64,91.14L511.42,80.21L512.19,87.32L512.96,110.38L513.73,104.17L514.51,109.89L515.28,109.95L517.6,85.55L518.37,95.79L519.14,109.8L519.91,105.06L520.69,123.7L521.46,96.88L523,130.85L523.78,122.61L526.09,153.67L526.87,138.69L528.41,168.93L529.18,166.51L529.96,170.9L530.73,161.33L531.5,161.01L532.27,176.29L533.05,172.69L533.82,174.6L534.59,201.69L535.36,174.61L536.14,202.88L536.91,177.11L538.45,216.93L539.23,214.8L540,202.93" style="vector-effect: non-scaling-stroke; fill: none; stroke: rgb(0, 0, 0); stroke-opacity: 1; stroke-width: 2px; opacity: 1;"/></g><g class="points"/><g class="text"/></g></g></g><g class="overplot"/><path class="xlines-above crisp" d="M0,0" style="fill: none;"/><path class="ylines-above crisp" d="M0,0" style="fill: none;"/><g class="overlines-above"/><g class="xaxislayer-above"><g class="xtick"><text text-anchor="middle" x="0" y="433" transform="translate(80,0)" style="font-family: 'Open Sans', verdana, arial, sans-serif; font-size: 12px; fill: rgb(42, 63, 95); fill-opacity: 1; white-space: pre;"><tspan class="line" dy="0em" x="0" y="433">00:00</tspan><tspan class="line" dy="1.3em" x="0" y="433">Jan 1, 2021</tspan></text></g><g class="xtick"><text text-anchor="middle" x="0" y="433" transform="translate(157.25,0)" style="font-family: 'Open Sans', verdana, arial, sans-serif; font-size: 12px; fill: rgb(42, 63, 95); fill-opacity: 1; white-space: pre;">00:05</text></g><g class="xtick"><text text-anchor="middle" x="0" y="433" transform="translate(234.51,0)" style="font-family: 'Open Sans', verdana, arial, sans-serif; font-size: 12px; fill: rgb(42, 63, 95); fill-opacity: 1; white-space: pre;">00:10</text></g><g class="xtick"><text text-anchor="middle" x="0" y="433" transform="translate(311.76,0)" style="font-family: 'Open Sans', verdana, arial, sans-serif; font-size: 12px; fill: rgb(42, 63, 95); fill-opacity: 1; white-space: pre;">00:15</text></g><g class="xtick"><text text-anchor="middle" x="0" y="433" transform="translate(389.01,0)" style="font-family: 'Open Sans', verdana, arial, sans-serif; font-size: 12px; fill: rgb(42, 63, 95); fill-opacity: 1; white-space: pre;">00:20</text></g><g class="xtick"><text text-anchor="middle" x="0" y="433" transform="translate(466.27,0)" style="font-family: 'Open Sans', verdana, arial, sans-serif; font-size: 12px; fill: rgb(42, 63, 95); fill-opacity: 1; white-space: pre;">00:25</text></g><g class="xtick"><text text-anchor="middle" x="0" y="433" transform="translate(543.52,0)" style="font-family: 'Open Sans', verdana, arial, sans-serif; font-size: 12px; fill: rgb(42, 63, 95); fill-opacity: 1; white-space: pre;">00:30</text></g></g><g class="yaxislayer-above"><g class="ytick"><text text-anchor="end" x="79" y="4.199999999999999" transform="translate(0,388.51)" style="font-family: 'Open Sans', verdana, arial, sans-serif; font-size: 12px; fill: rgb(42, 63, 95); fill-opacity: 1; white-space: pre;">400</text></g><g class="ytick"><text text-anchor="end" x="79" y="4.199999999999999" transform="translate(0,320)" style="font-family: 'Open Sans', verdana, arial, sans-serif; font-size: 12px; fill: rgb(42, 63, 95); fill-opacity: 1; white-space: pre;">450</text></g><g class="ytick"><text text-anchor="end" x="79" y="4.199999999999999" transform="translate(0,251.5)" style="font-family: 'Open Sans', verdana, arial, sans-serif; font-size: 12px; fill: rgb(42, 63, 95); fill-opacity: 1; white-space: pre;">500</text></g><g class="ytick"><text text-anchor="end" x="79" y="4.199999999999999" transform="translate(0,182.99)" style="font-family: 'Open Sans', verdana, arial, sans-serif; font-size: 12px; fill: rgb(42, 63, 95); fill-opacity: 1; white-space: pre;">550</text></g><g class="ytick"><text text-anchor="end" x="79" y="4.199999999999999" transform="translate(0,114.48)" style="font-family: 'Open Sans', verdana, arial, sans-serif; font-size: 12px; fill: rgb(42, 63, 95); fill-opacity: 1; white-space: pre;">600</text></g></g><g class="overaxes-above"/></g></g><g class="polarlayer"/><g class="ternarylayer"/><g class="geolayer"/><g class="funnelarealayer"/><g class="pielayer"/><g class="treemaplayer"/><g class="sunburstlayer"/><g class="glimages"/><defs id="topdefs-b3bbe8"><g class="clips"/><clipPath id="legendb3bbe8"><rect width="125" height="29" x="0" y="0"/></clipPath></defs><g class="layer-above"><g class="imagelayer"/><g class="shapelayer"/></g><g class="infolayer"><g class="legend" pointer-events="all" transform="translate(495,64.6)"><rect class="bg" shape-rendering="crispEdges" width="125" height="29" x="0" y="0" style="stroke: rgb(68, 68, 68); stroke-opacity: 1; fill: rgb(255, 255, 255); fill-opacity: 1; stroke-width: 0px;"/><g class="scrollbox" transform="" clip-path="url('#legendb3bbe8')"><g class="groups"><g class="traces" transform="translate(0,14.5)" style="opacity: 1;"><text class="legendtext" text-anchor="start" x="40" y="4.680000000000001" style="font-family: 'Open Sans', verdana, arial, sans-serif; font-size: 12px; fill: rgb(42, 63, 95); fill-opacity: 1; white-space: pre;">Training data</text><g class="layers" style="opacity: 1;"><g class="legendfill"/><g class="legendlines"><path class="js-line" d="M5,0h30" style="fill: none; stroke: rgb(0, 0, 0); stroke-opacity: 1; stroke-width: 2px;"/></g><g class="legendsymbols"><g class="legendpoints"/></g></g><rect class="legendtoggle" x="0" y="-9.5" width="122.3125" height="19" style="fill: rgb(0, 0, 0); fill-opacity: 0;"/></g></g></g><rect class="scrollbar" rx="20" ry="3" width="0" height="0" x="0" y="0" style="fill: rgb(128, 139, 164); fill-opacity: 1;"/></g><g class="g-gtitle"/><g class="g-xtitle"/><g class="g-ytitle"/></g></svg>