<svg class="main-svg" xmlns="http://www.w3.org/2000/svg" xmlns:xlink="http://www.w3.org/1999/xlink" width="700" height="500" style="" viewBox="0 0 700 500"><rect x="0" y="0" width="700" height="500" style="fill: rgb(255, 255, 255); fill-opacity: 1;"/><defs id="defs-962e17"><g class="clips"><clipPath id="clip962e17xyplot" class="plotclip"><rect width="540" height="320"/></clipPath><clipPath class="axesclip" id="clip962e17x"><rect x="80" y="0" width="540" height="500"/></clipPath><clipPath class="axesclip" id="clip962e17y"><rect x="0" y="100" width="700" height="320"/></clipPath><clipPath class="axesclip" id="clip962e17xy"><rect x="80" y="100" width="540" height="320"/></clipPath></g><g class="gradients"/></defs><g class="bglayer"/><g class="layer-below"><g class="imagelayer"/><g class="shapelayer"/></g><g class="cartesianlayer"><g class="subplot xy"><g class="layer-subplot"><g class="shapelayer"/><g class="imagelayer"/></g><g class="gridlayer"><g class="x"><path class="xgrid crisp" transform="translate(188.11,0)" d="M0,100v320" style="stroke: rgb(235, 240, 248); stroke-opacity: 1; stroke-width: 1px;"/><path class="xgrid crisp" transform="translate(296.22,0)" d="M0,100v320" style="stroke: rgb(235, 240, 248); stroke-opacity: 1; stroke-width: 1px;"/><path class="xgrid crisp" transform="translate(404.32,0)" d="M0,100v320" style="stroke: rgb(235, 240, 248); stroke-opacity: 1; stroke-width: 1px;"/><path class="xgrid crisp" transform="translate(512.4300000000001,0)" d="M0,100v320" style="stroke: rgb(235, 240, 248); stroke-opacity: 1; stroke-width: 1px;"/></g><g class="y"><path class="ygrid crisp" transform="translate(0,373.93)" d="M80,0h540" style="stroke: rgb(235, 240, 248); stroke-opacity: 1; stroke-width: 1px;"/><path class="ygrid crisp" transform="translate(0,312.26)" d="M80,0h540" style="stroke: rgb(235, 240, 248); stroke-opacity: 1; stroke-width: 1px;"/><path class="ygrid crisp" transform="translate(0,250.59)" d="M80,0h540" style="stroke: rgb(235, 240, 248); stroke-opacity: 1; stroke-width: 1px;"/><path class="ygrid crisp" transform="translate(0,188.91)" d="M80,0h540" style="stroke: rgb(235, 240, 248); stroke-opacity: 1; stroke-width: 1px;"/><path class="ygrid crisp" transform="translate(0,127.24)" d="M80,0h540" style="stroke: rgb(235, 240, 248); stroke-opacity: 1; stroke-width: 1px;"/></g></g><g class="zerolinelayer"/><path class="xlines-below"/><path class="ylines-below"/><g class="overlines-below"/><g class="xaxislayer-below"/><g class="yaxislayer-below"/><g class="overaxes-below"/><g class="plot" transform="translate(80,100)" clip-path="url('#clip962e17xyplot')"><g class="scatterlayer mlayer"><g class="trace scatter trace4c49f6" style="stroke-miterlimit: 2; opacity: 1;"><g class="fills"/><g class="errorbars"/><g class="lines"><path class="js-line" d="M0,133.9L0.54,128.81L1.08,131.86L1.62,122.56L2.16,146.62L3.24,143.08L3.78,142.56L4.32,130.13L4.86,146.54L5.41,136.79L5.95,155.22L6.49,137L7.03,148.23L7.57,155.58L8.11,144.54L8.65,162.64L9.19,155.08L9.73,154.91L10.27,143.56L10.81,143.07L11.35,170.01L12.97,149.72L13.51,162.53L15.14,149.22L15.68,160.66L16.22,170.24L16.76,153.42L17.84,161.46L18.38,151.8L18.92,147.28L19.46,156.55L20,159.09L20.54,166.07L21.08,152.71L21.62,165.45L22.7,141.74L23.24,143.74L24.32,160.57L24.86,155.87L25.95,137.14L26.49,153.46L27.03,157.32L27.57,155.22L28.11,133.33L28.65,142.25L29.73,152.46L30.27,144.87L30.81,150.25L31.35,149.9L31.89,147.46L32.43,132.45L32.97,149.26L33.51,133.25L34.05,142.42L34.59,141.17L35.14,137.28L35.68,130.27L36.22,153.99L36.76,125.82L37.3,138.54L37.84,145.14L38.38,131.64L38.92,139.39L39.46,139.34L40,138.64L40.54,153.66L41.08,142.37L42.7,131.81L43.24,131.85L44.32,136.25L44.86,132.27L45.95,140.63L46.49,137.59L47.03,147.85L47.57,141.42L48.65,137.64L49.19,137.52L49.73,157.34L50.27,140.94L50.81,131.63L51.35,139L51.89,138.53L52.43,156.05L52.97,149.38L53.51,163.09L54.59,142.05L55.14,153.65L55.68,154.07L56.22,163.8L56.76,154.75L57.3,167.16L57.84,155.62L58.38,159.17L58.92,156.87L60,178.71L60.54,176.2L61.08,168.01L61.62,179.88L62.7,186.17L63.24,180.9L63.78,181.72L64.32,177.08L65.41,180.7L65.95,203.61L66.49,190.96L67.03,199.83L67.57,180.77L68.11,203.18L68.65,201.82L69.19,193.76L69.73,196.43L70.27,216.28L70.81,206.6L71.35,213.54L72.43,201.36L72.97,202.48L73.51,217.79L74.59,206.16L75.14,220.89L76.22,209.41L76.76,225.87L77.3,212.36L77.84,213.34L78.38,230.97L78.92,227.15L79.46,202.18L80.54,222.28L81.08,243.13L81.62,215.16L82.16,218.19L82.7,223.8L83.24,212.84L83.78,222.75L85.41,195.68L85.95,199.27L87.03,209.95L87.57,202.72L88.11,196.09L88.65,204.81L89.73,192.01L90.27,208.24L90.81,172.91L91.35,198.37L91.89,197.74L92.43,190.78L92.97,175.09L93.51,183.47L94.05,184.51L94.59,178.48L95.14,175.6L95.68,163.49L96.22,175.4L96.76,173.12L97.3,170.74L97.84,164.66L98.38,148.01L98.92,155.97L99.46,155.43L100,143.25L100.54,144.23L101.08,137.64L102.16,137.03L102.7,133.5L103.78,108.6L104.32,121.69L104.86,119.66L105.41,104.98L105.95,113.98L106.49,108.2L107.03,107.44L107.57,76.71L108.65,107.89L109.19,99.42L110.81,70.79L111.35,73.63L111.89,56.72L112.43,63.8L112.97,61.95L113.51,64.41L114.05,36.99L114.59,63.89L115.14,53.37L115.68,62.62L117.3,39.27L117.84,49.69L118.38,58.06L118.92,41.51L119.46,31.27L120,33.35L120.54,44.17L121.08,68.8L121.62,30.93L122.7,44.35L123.24,41.8L123.78,28.61L124.32,47.86L125.41,31.98L125.95,51.95L126.49,44.36L127.03,74.58L127.57,42.42L128.11,47.18L128.65,43.51L129.19,66.8L129.73,62.55L130.27,53.44L130.81,41.41L131.35,59.91L131.89,56.89L132.43,61.74L133.51,77.16L134.05,70.14L135.68,93.9L136.22,80.48L137.3,108.22L137.84,95.65L138.38,92.99L138.92,109.32L139.46,111.47L140,125.91L140.54,120.54L141.08,127.29L141.62,112.6L142.16,131.62L143.24,136.63L143.78,167.21L145.41,143.03L145.95,154.71L146.49,175.25L147.03,166.22L148.65,197.11L149.19,190.57L149.73,189.35L150.27,191.7L150.81,192.24L151.35,206.04L151.89,213.87L152.43,203.39L154.05,225.41L154.59,239.42L155.14,233.4L155.68,242.7L156.22,240.09L156.76,249.46L157.3,238.92L157.84,250.35L158.38,253.53L158.92,271.2L160,254.21L160.54,256.13L161.62,267.72L162.16,267.53L162.7,269.47L163.24,253.14L164.32,274.29L164.86,259.57L165.41,254.68L165.95,285.72L166.49,254.39L167.03,276.12L167.57,269.83L168.11,270.56L168.65,277.11L169.19,266.54L169.73,287.88L170.27,267.13L170.81,278.04L171.35,257.86L171.89,261.39L172.43,258.43L172.97,267.15L173.51,251.75L174.05,267.98L174.59,259.83L175.68,243.17L176.22,255.55L177.3,227.3L177.84,247.69L178.92,234.82L179.46,212.7L180,237.52L180.54,218.58L181.08,197.46L181.62,213.56L182.16,202.92L182.7,204.83L183.24,204.51L184.86,182.89L185.41,184.67L185.95,165.06L186.49,174.3L187.57,154.61L188.11,160.67L189.19,138.58L189.73,143.63L190.27,157.22L190.81,138.74L191.35,125.32L191.89,128.83L192.43,128.65L193.51,122.14L194.05,115.72L195.68,90.06L196.22,108.53L196.76,100.97L197.3,81.57L197.84,79.51L198.38,86.95L198.92,90.99L199.46,74.75L200,78.03L200.54,63.92L201.08,71.49L201.62,55.76L202.7,59.7L203.24,43.29L204.32,67.32L204.86,45.64L205.41,44.46L205.95,31.9L206.49,51.16L207.03,47.54L207.57,42.6L208.11,39.72L208.65,47.04L209.19,38.98L209.73,39.68L210.27,36.86L211.35,46.92L211.89,39.32L212.43,35.15L212.97,50.03L213.51,33.7L214.05,46.79L214.59,49.43L215.14,36.06L216.22,62.47L216.76,52.15L217.3,59.99L217.84,59.82L218.38,61.2L218.92,70.38L219.46,55.54L220,71.38L220.54,56.84L221.62,78.94L222.16,74.5L223.24,87.78L223.78,80.98L224.32,79.28L224.86,85.37L225.41,94.58L225.95,94.09L226.49,92.57L228.65,125.59L229.19,111.21L229.73,105.88L230.27,126.95L230.81,142.24L231.35,126L231.89,128.56L232.43,126.26L233.51,150.14L234.05,135.42L235.68,168.85L236.22,170.94L236.76,149.36L237.3,179.97L237.84,180.37L238.38,177.91L238.92,170.47L239.46,173.01L240,187.92L240.54,181.12L241.08,185.51L242.7,192.26L243.24,205.76L243.78,192.85L244.32,201.61L244.86,210.31L245.41,194.33L245.95,185.78L246.49,193.9L247.03,210.31L247.57,197.71L248.65,206.09L249.19,204.9L249.73,223.99L250.81,204.51L251.35,216.4L251.89,230.09L252.43,202.14L252.97,222.84L253.51,193.67L254.59,217.98L255.14,206.73L255.68,217L256.22,216.03L256.76,199.3L257.3,199.99L257.84,196.67L258.38,209.04L258.92,189.21L259.46,185.2L260,211.53L260.54,211.86L261.08,197.92L262.16,211.09L262.7,192.39L263.24,205.19L263.78,190.58L264.32,178.86L264.86,188.7L265.41,194.01L265.95,185.1L266.49,199.3L267.03,189.33L268.65,176.92L269.19,187.46L270.27,163.51L270.81,176.31L271.35,173.73L271.89,166.54L272.43,169.7L272.97,159.06L273.51,179.74L274.05,154.96L274.59,175.49L275.14,155.13L275.68,132.11L276.22,141.26L276.76,144.72L277.3,162.39L278.38,149.57L278.92,118.67L279.46,165.11L280,150.09L280.54,147.39L281.08,140.96L281.62,142.95L282.16,151.36L282.7,131.13L283.24,137.36L283.78,150.69L284.86,139.85L285.41,145.56L285.95,143.5L286.49,125.19L287.03,127.19L287.57,122.05L288.11,138.64L288.65,137.48L289.19,140.11L289.73,141.29L290.27,148.47L290.81,132.33L291.35,138.06L291.89,134.36L294.05,150.63L294.59,146.82L296.22,155.6L296.76,144.98L297.3,159.92L297.84,143.07L298.38,158.14L298.92,150.45L299.46,156.48L300,136.48L300.54,154.39L301.08,140.11L302.16,156.66L302.7,141.66L303.24,144.84L303.78,166.85L304.32,159.38L304.86,162.72L305.41,164.01L305.95,169.68L307.57,153.17L308.11,163.72L309.19,157.04L309.73,171.05L310.27,174.9L310.81,170.32L311.35,160.34L311.89,169.52L312.43,165.87L312.97,174.3L314.59,157.76L315.14,155.47L315.68,155.95L316.22,163.11L316.76,163.23L317.3,168.04L317.84,158.25L318.38,169.45L318.92,180.34L319.46,154L320,149.93L320.54,172.04L321.62,148.71L322.16,153.64L322.7,152.51L323.24,155.39L324.32,145.89L324.86,132.04L325.41,146.3L325.95,122.78L326.49,158.63L327.03,134.83L327.57,140.88L328.11,133.37L328.65,142.9L329.19,134.39L329.73,131.27L330.27,137.16L330.81,131.28L331.35,131.47L331.89,129.07L332.43,127.67L332.97,119.23L333.51,132.07L334.05,117.71L334.59,105.94L335.14,112.71L335.68,123.04L336.22,121.78L336.76,103.76L337.3,113.14L337.84,102.49L338.38,98.71L338.92,103.97L339.46,80.97L340,99.19L341.08,101.13L341.62,97.45L342.16,90.53L342.7,91.31L343.24,100.28L343.78,86.48L344.32,94.24L344.86,93.69L345.41,86.21L345.95,69.49L346.49,81.6L347.03,74.63L347.57,94.36L348.11,76.27L348.65,83.68L349.73,68.56L350.27,104.79L351.35,80.85L351.89,91.02L352.43,81.26L352.97,83.34L353.51,86.09L354.05,81.45L354.59,86.22L355.14,81.29L355.68,85.89L356.22,74.64L356.76,96.13L357.3,96.25L357.84,86.41L358.38,92.81L358.92,113.57L359.46,107.98L360,113.13L360.54,113.19L361.08,106.89L362.16,91.21L362.7,100.43L364.32,125.57L364.86,101.41L365.95,132L366.49,124.59L368.11,152.54L368.65,139.05L369.73,166.28L370.27,164.1L370.81,168.06L371.35,159.44L371.89,159.15L372.43,172.91L372.97,169.67L373.51,171.39L374.05,195.77L374.59,171.4L375.14,196.84L375.68,173.65L376.76,209.49L377.3,207.58L377.84,196.89" style="vector-effect: non-scaling-stroke; fill: none; stroke: rgb(0, 0, 0); stroke-opacity: 1; stroke-width: 2px; opacity: 1;"/></g><g class="points"/><g class="text"/></g><g class="trace scatter trace2b216b" style="stroke-miterlimit: 2; opacity: 1;"><g class="fills"/><g class="errorbars"/><g class="lines"><path class="js-line" d="M0,130.9L6.49,146.97L7.03,148.03L10.81,153.82L11.35,154.4L14.59,156.59L15.14,156.74L17.84,156.69L18.38,156.53L21.62,154.65L22.16,154.21L27.57,148.57L28.11,147.94L36.76,138.77L37.3,138.37L41.08,136.61L41.62,136.54L44.32,136.93L44.86,137.18L47.57,139.35L48.11,139.98L51.35,145.16L51.89,146.25L56.22,157.26L56.76,158.89L63.78,182.92L64.32,184.84L70.81,205.53L71.35,206.92L75.14,214.5L75.68,215.24L78.38,217.52L78.92,217.68L81.08,217.28L81.62,216.92L83.78,214.41L84.32,213.52L87.57,205.95L88.11,204.32L91.89,190.12L92.43,187.71L97.84,159.02L98.38,155.77L114.05,60.43L114.59,58.1L118.38,45.62L118.92,44.43L121.08,41.26L121.62,40.88L123.24,40.72L123.78,41L125.95,43.77L126.49,44.87L129.19,52.69L129.73,54.71L133.51,72.63L134.05,75.68L139.46,111.7L140,115.74L156.76,241.75L157.3,244.76L161.08,261.84L161.62,263.66L164.32,270.19L164.86,270.96L167.03,272.23L167.57,272.09L169.19,270.56L169.73,269.69L171.89,264.42L172.43,262.67L175.68,248.8L176.22,245.96L180.54,218.76L181.08,214.88L189.19,150.11L189.73,145.66L197.84,84.81L198.38,81.42L202.7,58.74L203.24,56.52L206.49,46.38L207.03,45.24L209.19,42.31L209.73,41.98L211.35,41.99L211.89,42.31L214.05,45.18L214.59,46.28L217.3,53.95L217.84,55.89L221.62,72.75L222.16,75.57L228.65,114.32L229.19,117.78L238.92,175.51L239.46,178.15L244.32,197.74L244.86,199.41L248.65,208.06L249.19,208.86L251.89,211.24L252.43,211.4L254.59,211L255.14,210.66L257.84,207.54L258.38,206.66L261.62,199.78L262.16,198.4L267.57,182.04L268.11,180.24L277.84,150.03L278.38,148.74L282.16,141.63L282.7,140.92L285.41,138.53L285.95,138.29L288.65,138.24L289.19,138.45L291.89,140.46L292.43,141.03L296.76,147.11L297.3,147.99L306.49,162.02L307.03,162.58L310.27,164.83L310.81,165.01L313.51,164.94L314.05,164.73L316.76,162.7L317.3,162.09L320.54,157.13L321.08,156.09L325.41,145.81L325.95,144.32L332.97,122.11L333.51,120.29L342.16,93.7L342.7,92.39L346.49,85.11L347.03,84.4L349.73,82.25L350.27,82.13L352.43,82.74L352.97,83.18L355.14,86.15L355.68,87.19L358.38,94.27L358.92,96.05L362.7,111.75L363.24,114.42L368.65,145.73L369.19,149.2L377.84,204.85" style="vector-effect: non-scaling-stroke; fill: none; stroke: rgb(255, 0, 0); stroke-opacity: 1; stroke-width: 2px; opacity: 1;"/></g><g class="points"/><g class="text"/></g><g class="trace scatter tracead5836" style="stroke-miterlimit: 2; opacity: 1;"><g class="fills"/><g class="errorbars"/><g class="lines"><path class="js-line" d="M378.38,215.68L378.92,211.21L379.46,219.38L380,190.93L380.54,206.43L381.08,229.28L381.62,225.38L382.16,227.24L382.7,239.95L383.24,236.85L383.78,236.01L384.32,247.36L384.86,222.22L385.95,248.35L386.49,255.07L387.03,237.92L387.57,246.49L389.19,268.24L389.73,250.65L390.27,257.06L390.81,248.17L391.35,262.39L391.89,254.01L392.43,251.63L392.97,253.36L393.51,267.31L394.05,264.25L394.59,264.13L395.68,256.41L396.22,261.79L396.76,257.29L397.3,258.83L397.84,261.41L398.92,233.15L399.46,246.75L400,262.73L400.54,250.08L401.08,234.49L401.62,246.7L402.7,239.57L403.24,227.92L403.78,242.93L404.32,234.29L404.86,218.28L405.41,230.39L407.57,196.1L408.11,209.79L408.65,192.3L409.19,195.58L409.73,185.14L410.81,166.47L411.35,168.76L412.43,177.09L412.97,170.62L413.51,159.74L414.05,164.75L414.59,140.04L415.14,162.04L416.22,129.78L416.76,135.16L417.3,133.55L417.84,119.44L418.92,108.02L419.46,113.24L420,88.32L420.54,97.23L421.08,96.64L421.62,102.18L422.16,101.49L422.7,73.25L423.24,87.87L423.78,70.87L424.32,73.85L424.86,62.22L425.41,76.84L425.95,61.8L426.49,47.85L427.03,50.93L427.57,53.36L428.11,57.16L428.65,47.58L429.19,48.9L429.73,40.29L430.27,35.67L430.81,24.32L431.35,24.23L431.89,36.01L432.43,25.88L432.97,43.6L434.05,17.18L434.59,44.82L435.14,20.24L435.68,37.39L436.22,38.76L436.76,23.49L437.3,36.35L437.84,34.27L438.38,28.83L438.92,16L439.46,33.09L440,28.24L440.54,38.36L441.08,41.47L441.62,39.82L442.16,30.44L442.7,34.84L443.24,38.44L443.78,36.81L444.32,37.4L444.86,56.63L445.41,55.66L445.95,50.81L447.03,67.25L447.57,65.91L448.11,54.98L448.65,61.95L450.27,82.27L450.81,79.19L451.35,71.55L451.89,92.73L452.43,86.97L452.97,101.97L453.51,111.84L454.05,105.45L455.68,123.3L456.22,119.54L457.3,136.55L457.84,142.78L458.38,131.74L458.92,143.96L459.46,154.77L460,142.84L461.08,168.93L461.62,164.28L462.16,183.76L462.7,180.61L463.24,178.68L463.78,196.48L464.32,190.78L464.86,186.61L465.41,184.5L465.95,204.97L466.49,199.72L467.03,207.8L467.57,208.14L468.11,220.77L468.65,212.46L469.19,219.04L469.73,236.2L470.27,222.63L470.81,239.85L471.35,235.59L471.89,239.69L472.43,230.42L472.97,247.54L474.05,223.72L474.59,248.92L475.14,247.05L475.68,254.13L476.22,241.8L476.76,245.81L477.3,251.2L478.38,243.07L478.92,249.23L479.46,255.98L480,252.12L480.54,262.73L481.08,258.4L481.62,263.15L482.16,260.04L482.7,242.71L483.24,258.62L483.78,263.25L484.32,245.96L484.86,243.97L485.41,250.84L485.95,253.42L486.49,244.75L487.03,225.13L487.57,238.69L488.65,232.67L489.19,217.86L489.73,242.55L490.27,232.69L490.81,230.94L491.35,224.27L491.89,244.91L492.43,229.75L492.97,225.51L493.51,199.76L494.05,216.09L494.59,204.05L495.14,208.08L495.68,199.55L496.76,188.32L497.3,205.45L498.38,176.8L498.92,183.86L499.46,182L500,171.65L500.54,184.5L501.08,164.05L501.62,172.13L502.16,166.17L502.7,165.17L503.24,150.21L504.32,163.14L504.86,140.46L505.41,138L505.95,140.65L506.49,145.02L507.03,144.49L507.57,123.55L508.11,138.86L508.65,128.41L510.27,123.19L510.81,106.59L511.35,123.25L511.89,118.32L512.43,125.02L513.51,87.97L514.05,108.01L514.59,94.31L515.14,104.64L515.68,115.95L516.22,98.52L516.76,91.93L517.3,105.48L518.38,88.85L518.92,93.47L519.46,83.53L520,96.66L520.54,79.39L521.08,92.4L521.62,93.32L522.16,87.17L522.7,80.78L523.24,111.38L523.78,85.61L524.32,95.42L524.86,84.52L525.41,92.11L525.95,86.69L526.49,108.49L527.03,99.49L528.11,77.99L528.65,96.19L529.19,108.28L529.73,104.14L530.27,94.25L531.35,110.61L531.89,104.41L532.97,91.24L533.51,102.57L535.14,128.58L535.68,110.21L536.22,119.6L536.76,109.49L537.3,105.92L537.84,127.66L538.38,136.9L538.92,110.17L539.46,121.3L540,118.24" style="vector-effect: non-scaling-stroke; fill: none; stroke: rgb(128, 128, 128); stroke-opacity: 1; stroke-width: 2px; opacity: 1;"/></g><g class="points"/><g class="text"/></g><g class="trace scatter traceeda728" style="stroke-miterlimit: 2; opacity: 1;"><g class="fills"/><g class="errorbars"/><g class="lines"><path class="js-line" d="M378.38,207.97L383.24,231.69L383.78,233.76L387.03,243.35L387.57,244.47L390.27,248L390.81,248.29L392.43,248.39L392.97,248.17L395.14,246.1L395.68,245.31L398.92,238.54L399.46,237.12L404.32,221.89L404.86,220.01L417.84,177.46L418.38,176.07L423.78,164.47L424.32,163.54L429.19,156.82L429.73,156.24L434.59,152.25L435.14,151.92L440.54,149.6L441.08,149.44L448.11,148.19L448.65,148.13L465.41,147.61L465.95,147.6L540,147.58" style="vector-effect: non-scaling-stroke; fill: none; stroke: rgb(0, 0, 255); stroke-opacity: 0.8; stroke-width: 2px; opacity: 1;"/></g><g class="points"/><g class="text"/></g><g class="trace scatter trace89a032" style="stroke-miterlimit: 2; opacity: 1;"><g class="fills"><g><path class="js-fill" d="M378.38,201.47L381.62,213.07L382.16,214.42L384.32,218.03L384.86,218.47L386.49,218.7L387.03,218.41L388.65,216.47L389.19,215.48L391.89,208.04L392.43,206.1L396.22,189L396.76,186.14L404.32,140.94L404.86,137.63L412.97,93.11L413.51,90.64L418.92,69.88L419.46,68.2L424.32,56L424.86,54.94L429.73,47.56L430.27,46.95L434.59,43.18L435.14,42.83L440.54,40.38L441.08,40.22L448.65,38.88L449.19,38.83L465.41,38.35L465.95,38.35L540,38.33L540,256.84L447.03,257.56L446.49,257.62L438.92,259.33L438.38,259.53L432.97,262.33L432.43,262.71L427.57,267.09L427.03,267.7L422.16,274.22L421.62,275.06L414.05,288.44L413.51,289.44L407.03,300.05L406.49,300.72L403.24,303.52L402.7,303.76L400.54,303.91L400,303.74L397.84,302.1L397.3,301.44L394.59,296.56L394.05,295.26L390.81,285.1L390.27,283.02L385.95,262.58L385.41,259.59L380,225.63L379.46,221.94L378.38,214.47Z" style="fill: rgb(0, 0, 255); fill-opacity: 0.1; stroke-width: 0;"/></g></g><g class="errorbars"/><g class="lines"><path class="js-line" d="M378.38,201.47L381.62,213.07L382.16,214.42L384.32,218.03L384.86,218.47L386.49,218.7L387.03,218.41L388.65,216.47L389.19,215.48L391.89,208.04L392.43,206.1L396.22,189L396.76,186.14L404.32,140.94L404.86,137.63L412.97,93.11L413.51,90.64L418.92,69.88L419.46,68.2L424.32,56L424.86,54.94L429.73,47.56L430.27,46.95L434.59,43.18L435.14,42.83L440.54,40.38L441.08,40.22L448.65,38.88L449.19,38.83L465.41,38.35L465.95,38.35L540,38.33L540,256.84L447.03,257.56L446.49,257.62L438.92,259.33L438.38,259.53L432.97,262.33L432.43,262.71L427.57,267.09L427.03,267.7L422.16,274.22L421.62,275.06L414.05,288.44L413.51,289.44L407.03,300.05L406.49,300.72L403.24,303.52L402.7,303.76L400.54,303.91L400,303.74L397.84,302.1L397.3,301.44L394.59,296.56L394.05,295.26L390.81,285.1L390.27,283.02L385.95,262.58L385.41,259.59L380,225.63L379.46,221.94L378.38,214.47" style="vector-effect: non-scaling-stroke; fill: none; stroke: rgb(255, 255, 255); stroke-opacity: 0; stroke-width: 2px; opacity: 1;"/></g><g class="points"/><g class="text"/></g></g></g><g class="overplot"/><path class="xlines-above crisp" d="M0,0" style="fill: none;"/><path class="ylines-above crisp" d="M0,0" style="fill: none;"/><g class="overlines-above"/><g class="xaxislayer-above"><g class="xtick"><text text-anchor="middle" x="0" y="433" transform="translate(80,0)" style="font-family: 'Open Sans', verdana, arial, sans-serif; font-size: 12px; fill: rgb(42, 63, 95); fill-opacity: 1; white-space: pre;"><tspan class="line" dy="0em" x="0" y="433">00:00</tspan><tspan class="line" dy="1.3em" x="0" y="433">Jan 1, 2021</tspan></text></g><g class="xtick"><text text-anchor="middle" x="0" y="433" transform="translate(188.11,0)" style="font-family: 'Open Sans', verdana, arial, sans-serif; font-size: 12px; fill: rgb(42, 63, 95); fill-opacity: 1; white-space: pre;">00:10</text></g><g class="xtick"><text text-anchor="middle" x="0" y="433" transform="translate(296.22,0)" style="font-family: 'Open Sans', verdana, arial, sans-serif; font-size: 12px; fill: rgb(42, 63, 95); fill-opacity: 1; white-space: pre;">00:20</text></g><g class="xtick"><text text-anchor="middle" x="0" y="433" transform="translate(404.32,0)" style="font-family: 'Open Sans', verdana, arial, sans-serif; font-size: 12px; fill: rgb(42, 63, 95); fill-opacity: 1; white-space: pre;">00:30</text></g><g class="xtick"><text text-anchor="middle" x="0" y="433" transform="translate(512.4300000000001,0)" style="font-family: 'Open Sans', verdana, arial, sans-serif; font-size: 12px; fill: rgb(42, 63, 95); fill-opacity: 1; white-space: pre;">00:40</text></g></g><g class="yaxislayer-above"><g class="ytick"><text text-anchor="end" x="79" y="4.199999999999999" transform="translate(0,373.93)" style="font-family: 'Open Sans', verdana, arial, sans-serif; font-size: 12px; fill: rgb(42, 63, 95); fill-opacity: 1; white-space: pre;">400</text></g><g class="ytick"><text text-anchor="end" x="79" y="4.199999999999999" transform="translate(0,312.26)" style="font-family: 'Open Sans', verdana, arial, sans-serif; font-size: 12px; fill: rgb(42, 63, 95); fill-opacity: 1; white-space: pre;">450</text></g><g class="ytick"><text text-anchor="end" x="79" y="4.199999999999999" transform="translate(0,250.59)" style="font-family: 'Open Sans', verdana, arial, sans-serif; font-size: 12px; fill: rgb(42, 63, 95); fill-opacity: 1; white-space: pre;">500</text></g><g class="ytick"><text text-anchor="end" x="79" y="4.199999999999999" transform="translate(0,188.91)" style="font-family: 'Open Sans', verdana, arial, sans-serif; font-size: 12px; fill: rgb(42, 63, 95); fill-opacity: 1; white-space: pre;">550</text></g><g class="ytick"><text text-anchor="end" x="79" y="4.199999999999999" transform="translate(0,127.24)" style="font-family: 'Open Sans', verdana, arial, sans-serif; font-size: 12px; fill: rgb(42, 63, 95); fill-opacity: 1; white-space: pre;">600</text></g></g><g class="overaxes-above"/></g></g><g class="polarlayer"/><g class="ternarylayer"/><g class="geolayer"/><g class="funnelarealayer"/><g class="pielayer"/><g class="treemaplayer"/><g class="sunburstlayer"/><g class="glimages"/><defs id="topdefs-962e17"><g class="clips"/><clipPath id="legend962e17"><rect width="311" height="67" x="0" y="0"/></clipPath></defs><g class="layer-above"><g class="imagelayer"/><g class="shapelayer"/></g><g class="infolayer"><g class="legend" pointer-events="all" transform="translate(309,26.599999999999994)"><rect class="bg" shape-rendering="crispEdges" style="stroke: rgb(68, 68, 68); stroke-opacity: 1; fill: rgb(255, 255, 255); fill-opacity: 1; stroke-width: 0px;" width="311" height="67" x="0" y="0"/><g class="scrollbox" transform="" clip-path="url('#legend962e17')"><g class="groups"><g class="traces" transform="translate(0,14.5)" style="opacity: 1;"><text class="legendtext" text-anchor="start" x="40" y="4.680000000000001" style="font-family: 'Open Sans', verdana, arial, sans-serif; font-size: 12px; fill: rgb(42, 63, 95); fill-opacity: 1; white-space: pre;">Training data</text><g class="layers" style="opacity: 1;"><g class="legendfill"/><g class="legendlines"><path class="js-line" d="M5,0h30" style="fill: none; stroke: rgb(0, 0, 0); stroke-opacity: 1; stroke-width: 2px;"/></g><g class="legendsymbols"><g class="legendpoints"/></g></g><rect class="legendtoggle" x="0" y="-9.5" width="122.3125" height="19" style="fill: rgb(0, 0, 0); fill-opacity: 0;"/></g><g class="traces" transform="translate(206.140625,14.5)" style="opacity: 1;"><text class="legendtext" text-anchor="start" x="40" y="4.680000000000001" style="font-family: 'Open Sans', verdana, arial, sans-serif; font-size: 12px; fill: rgb(42, 63, 95); fill-opacity: 1; white-space: pre;">Model</text><g class="layers" style="opacity: 1;"><g class="legendfill"/><g class="legendlines"><path class="js-line" d="M5,0h30" style="fill: none; stroke: rgb(255, 0, 0); stroke-opacity: 1; stroke-width: 2px;"/></g><g class="legendsymbols"><g class="legendpoints"/></g></g><rect class="legendtoggle" x="0" y="-9.5" width="77.828125" height="19" style="fill: rgb(0, 0, 0); fill-opacity: 0;"/></g><g class="traces" transform="translate(0,33.5)" style="opacity: 1;"><text class="legendtext" text-anchor="start" x="40" y="4.680000000000001" style="font-family: 'Open Sans', verdana, arial, sans-serif; font-size: 12px; fill: rgb(42, 63, 95); fill-opacity: 1; white-space: pre;">Testing data</text><g class="layers" style="opacity: 1;"><g class="legendfill"/><g class="legendlines"><path class="js-line" d="M5,0h30" style="fill: none; stroke: rgb(128, 128, 128); stroke-opacity: 1; stroke-width: 2px;"/></g><g class="legendsymbols"><g class="legendpoints"/></g></g><rect class="legendtoggle" x="0" y="-9.5" width="117.234375" height="19" style="fill: rgb(0, 0, 0); fill-opacity: 0;"/></g><g class="traces" transform="translate(206.140625,33.5)" style="opacity: 1;"><text class="legendtext" text-anchor="start" x="40" y="4.680000000000001" style="font-family: 'Open Sans', verdana, arial, sans-serif; font-size: 12px; fill: rgb(42, 63, 95); fill-opacity: 1; white-space: pre;">Prediction</text><g class="layers" style="opacity: 1;"><g class="legendfill"/><g class="legendlines"><path class="js-line" d="M5,0h30" style="fill: none; stroke: rgb(0, 0, 255); stroke-opacity: 0.8; stroke-width: 2px;"/></g><g class="legendsymbols"><g class="legendpoints"/></g></g><rect class="legendtoggle" x="0" y="-9.5" width="101.9375" height="19" style="fill: rgb(0, 0, 0); fill-opacity: 0;"/></g><g class="traces" transform="translate(0,52.5)" style="opacity: 1;"><text class="legendtext" text-anchor="start" x="40" y="4.680000000000001" style="font-family: 'Open Sans', verdana, arial, sans-serif; font-size: 12px; fill: rgb(42, 63, 95); fill-opacity: 1; white-space: pre;">Confidence Interval (95%)</text><g class="layers" style="opacity: 1;"><g class="legendfill"><path class="js-fill" d="M5,-2h30v6h-30z" style="stroke-width: 0; fill: rgb(0, 0, 255); fill-opacity: 0.1;"/></g><g class="legendlines"><path class="js-line" d="M5,-2h30" style="fill: none; stroke: rgb(255, 255, 255); stroke-opacity: 0; stroke-width: 2px;"/></g><g class="legendsymbols"><g class="legendpoints"/></g></g><rect class="legendtoggle" x="0" y="-9.5" width="203.640625" height="19" style="fill: rgb(0, 0, 0); fill-opacity: 0;"/></g></g></g><rect class="scrollbar" rx="20" ry="3" width="0" height="0" style="fill: rgb(128, 139, 164); fill-opacity: 1;" x="0" y="0"/></g><g class="g-gtitle"/><g class="g-xtitle"/><g class="g-ytitle"/></g></svg>