<svg class="main-svg" xmlns="http://www.w3.org/2000/svg" xmlns:xlink="http://www.w3.org/1999/xlink" width="700" height="500" style="" viewBox="0 0 700 500"><rect x="0" y="0" width="700" height="500" style="fill: rgb(255, 255, 255); fill-opacity: 1;"/><defs id="defs-ca2b46"><g class="clips"><clipPath id="clipca2b46xyplot" class="plotclip"><rect width="540" height="320"/></clipPath><clipPath class="axesclip" id="clipca2b46x"><rect x="80" y="0" width="540" height="500"/></clipPath><clipPath class="axesclip" id="clipca2b46y"><rect x="0" y="100" width="700" height="320"/></clipPath><clipPath class="axesclip" id="clipca2b46xy"><rect x="80" y="100" width="540" height="320"/></clipPath></g><g class="gradients"/></defs><g class="bglayer"/><g class="layer-below"><g class="imagelayer"/><g class="shapelayer"/></g><g class="cartesianlayer"><g class="subplot xy"><g class="layer-subplot"><g class="shapelayer"/><g class="imagelayer"/></g><g class="gridlayer"><g class="x"><path class="xgrid crisp" transform="translate(188.11,0)" d="M0,100v320" style="stroke: rgb(235, 240, 248); stroke-opacity: 1; stroke-width: 1px;"/><path class="xgrid crisp" transform="translate(296.22,0)" d="M0,100v320" style="stroke: rgb(235, 240, 248); stroke-opacity: 1; stroke-width: 1px;"/><path class="xgrid crisp" transform="translate(404.32,0)" d="M0,100v320" style="stroke: rgb(235, 240, 248); stroke-opacity: 1; stroke-width: 1px;"/><path class="xgrid crisp" transform="translate(512.4300000000001,0)" d="M0,100v320" style="stroke: rgb(235, 240, 248); stroke-opacity: 1; stroke-width: 1px;"/></g><g class="y"><path class="ygrid crisp" transform="translate(0,389.23)" d="M80,0h540" style="stroke: rgb(235, 240, 248); stroke-opacity: 1; stroke-width: 1px;"/><path class="ygrid crisp" transform="translate(0,323.9)" d="M80,0h540" style="stroke: rgb(235, 240, 248); stroke-opacity: 1; stroke-width: 1px;"/><path class="ygrid crisp" transform="translate(0,258.57)" d="M80,0h540" style="stroke: rgb(235, 240, 248); stroke-opacity: 1; stroke-width: 1px;"/><path class="ygrid crisp" transform="translate(0,193.24)" d="M80,0h540" style="stroke: rgb(235, 240, 248); stroke-opacity: 1; stroke-width: 1px;"/><path class="ygrid crisp" transform="translate(0,127.9)" d="M80,0h540" style="stroke: rgb(235, 240, 248); stroke-opacity: 1; stroke-width: 1px;"/></g></g><g class="zerolinelayer"/><path class="xlines-below"/><path class="ylines-below"/><g class="overlines-below"/><g class="xaxislayer-below"/><g class="yaxislayer-below"/><g class="overaxes-below"/><g class="plot" transform="translate(80,100)" clip-path="url('#clipca2b46xyplot')"><g class="scatterlayer mlayer"><g class="trace scatter traced03986" style="stroke-miterlimit: 2; opacity: 1;"><g class="fills"/><g class="errorbars"/><g class="lines"><path class="js-line" d="M0,140.9L0.54,135.5L1.08,138.73L1.62,128.87L2.16,154.37L3.24,150.62L3.78,150.06L4.32,136.9L4.86,154.28L5.41,143.96L5.95,163.48L6.49,144.18L7.03,156.07L7.57,163.86L8.11,152.16L8.65,171.34L9.19,163.33L9.73,163.14L10.27,151.13L10.81,150.6L11.35,179.14L12.97,157.65L13.51,171.22L15.14,157.12L15.68,169.24L16.22,179.38L16.76,161.57L17.84,170.09L18.38,159.85L18.92,155.06L19.46,164.88L20,167.58L20.54,174.97L21.08,160.82L21.62,174.31L22.7,149.2L23.24,151.32L24.32,169.14L24.86,164.17L25.95,144.33L26.49,161.62L27.03,165.7L27.57,163.48L28.11,140.28L28.65,149.73L29.73,160.55L30.27,152.51L30.81,158.22L31.35,157.84L31.89,155.25L32.43,139.35L32.97,157.16L33.51,140.2L34.05,149.92L34.59,148.6L35.14,144.47L35.68,137.05L36.22,162.17L36.76,132.33L37.3,145.81L37.84,152.79L38.38,138.5L38.92,146.71L39.46,146.66L40,145.91L40.54,161.82L41.08,149.87L42.7,138.68L43.24,138.72L44.32,143.39L44.86,139.16L45.95,148.02L46.49,144.8L47.03,155.67L47.57,148.86L48.65,144.85L49.19,144.73L49.73,165.73L50.27,148.35L50.81,138.48L51.35,146.29L51.89,145.8L52.43,164.35L52.97,157.29L53.51,171.81L54.59,149.53L55.14,161.81L55.68,162.25L56.22,172.57L56.76,162.98L57.3,176.13L57.84,163.9L58.38,167.66L58.92,165.23L60,188.36L60.54,185.7L61.08,177.02L61.62,189.6L62.7,196.26L63.24,190.68L63.78,191.55L64.32,186.64L65.41,190.46L65.95,214.74L66.49,201.33L67.03,210.74L67.57,190.54L68.11,214.28L68.65,212.84L69.19,204.31L69.73,207.13L70.27,228.15L70.81,217.9L71.35,225.25L72.43,212.35L72.97,213.54L73.51,229.75L74.59,217.44L75.14,233.04L76.22,220.88L76.76,238.31L77.3,224.01L77.84,225.05L78.38,243.72L78.92,239.67L79.46,213.22L80.54,234.51L81.08,256.61L81.62,226.97L82.16,230.18L82.7,236.13L83.24,224.52L83.78,235.01L85.41,206.34L85.95,210.14L87.03,221.45L87.57,213.79L88.11,206.77L88.65,216.01L89.73,202.45L90.27,219.64L90.81,182.22L91.35,209.19L91.89,208.52L92.43,201.15L92.97,184.52L93.51,193.4L94.05,194.5L94.59,188.11L95.14,185.06L95.68,172.24L96.22,184.85L96.76,182.44L97.3,179.91L97.84,173.48L98.38,155.84L98.92,164.27L99.46,163.7L100,150.79L100.54,151.83L101.08,144.85L102.16,144.21L102.7,140.46L103.78,114.09L104.32,127.96L104.86,125.81L105.41,110.25L105.95,119.79L106.49,113.67L107.03,112.87L107.57,80.31L108.65,113.34L109.19,104.37L110.81,74.03L111.35,77.04L111.89,59.14L112.43,66.64L112.97,64.68L113.51,67.28L114.05,38.23L114.59,66.73L115.14,55.58L115.68,65.38L117.3,40.65L117.84,51.69L118.38,60.55L118.92,43.02L119.46,32.17L120,34.38L120.54,45.84L121.08,71.93L121.62,31.81L122.7,46.03L123.24,43.33L123.78,29.35L124.32,49.75L125.41,32.93L125.95,54.08L126.49,46.05L127.03,78.06L127.57,43.98L128.11,49.03L128.65,45.15L129.19,69.82L129.73,65.31L130.27,55.66L130.81,42.91L131.35,62.51L131.89,59.32L132.43,64.45L133.51,80.79L134.05,73.35L135.68,98.52L136.22,84.3L137.3,113.69L137.84,100.37L138.38,97.56L138.92,114.86L139.46,117.13L140,132.43L140.54,126.74L141.08,133.88L141.62,118.32L142.16,138.47L143.24,143.78L143.78,176.18L145.41,150.57L145.95,162.94L146.49,184.69L147.03,175.12L148.65,207.85L149.19,200.93L149.73,199.64L150.27,202.12L150.81,202.69L151.35,217.31L151.89,225.6L152.43,214.5L154.05,237.83L154.59,252.67L155.14,246.29L155.68,256.14L156.22,253.39L156.76,263.31L157.3,252.14L157.84,264.25L158.38,267.61L158.92,286.33L160,268.34L160.54,270.37L161.62,282.65L162.16,282.45L162.7,284.5L163.24,267.21L164.32,289.61L164.86,274.01L165.41,268.83L165.95,301.71L166.49,268.53L167.03,291.54L167.57,284.88L168.11,285.65L168.65,292.59L169.19,281.4L169.73,304L170.27,282.02L170.81,293.58L171.35,272.2L171.89,275.95L172.43,272.81L172.97,282.05L173.51,265.74L174.05,282.92L174.59,274.29L175.68,256.64L176.22,269.76L177.3,239.83L177.84,261.43L178.92,247.8L179.46,224.37L180,250.65L180.54,230.6L181.08,208.22L181.62,225.27L182.16,214L182.7,216.03L183.24,215.69L184.86,192.79L185.41,194.68L185.95,173.91L186.49,183.69L187.57,162.83L188.11,169.25L189.19,145.85L189.73,151.2L190.27,165.6L190.81,146.02L191.35,131.8L191.89,135.52L192.43,135.33L193.51,128.43L194.05,121.64L195.68,94.46L196.22,114.02L196.76,106.01L197.3,85.46L197.84,83.27L198.38,91.16L198.92,95.44L199.46,78.24L200,81.71L200.54,66.77L201.08,74.78L201.62,58.11L202.7,62.29L203.24,44.91L204.32,70.37L204.86,47.4L205.41,46.15L205.95,32.84L206.49,53.25L207.03,49.41L207.57,44.18L208.11,41.13L208.65,48.88L209.19,40.34L209.73,41.09L210.27,38.1L211.35,48.76L211.89,40.7L212.43,36.28L212.97,52.04L213.51,34.75L214.05,48.61L214.59,51.41L215.14,37.25L216.22,65.22L216.76,54.3L217.3,62.6L217.84,62.42L218.38,63.88L218.92,73.61L219.46,57.88L220,74.67L220.54,59.27L221.62,82.68L222.16,77.97L223.24,92.03L223.78,84.83L224.32,83.03L224.86,89.48L225.41,99.24L225.95,98.72L226.49,97.11L228.65,132.09L229.19,116.86L229.73,111.21L230.27,133.53L230.81,149.72L231.35,132.53L231.89,135.24L232.43,132.8L233.51,158.1L234.05,142.5L235.68,177.91L236.22,180.13L236.76,157.27L237.3,189.69L237.84,190.12L238.38,187.51L238.92,179.64L239.46,182.32L240,198.12L240.54,190.91L241.08,195.56L242.7,202.71L243.24,217.01L243.78,203.34L244.32,212.62L244.86,221.83L245.41,204.9L245.95,195.84L246.49,204.45L247.03,221.83L247.57,208.48L248.65,217.37L249.19,216.11L249.73,236.32L250.81,215.69L251.35,228.28L251.89,242.79L252.43,213.18L252.97,235.11L253.51,204.21L254.59,229.96L255.14,218.04L255.68,228.92L256.22,227.9L256.76,210.17L257.3,210.9L257.84,207.38L258.38,220.49L258.92,199.48L259.46,195.23L260,223.13L260.54,223.47L261.08,208.71L262.16,222.66L262.7,202.85L263.24,216.41L263.78,200.93L264.32,188.52L264.86,198.94L265.41,204.57L265.95,195.13L266.49,210.17L267.03,199.61L268.65,186.46L269.19,197.62L270.27,172.26L270.81,185.82L271.35,183.08L271.89,175.47L272.43,178.81L272.97,167.55L273.51,189.46L274.05,163.2L274.59,184.95L275.14,163.38L275.68,138.99L276.22,148.69L276.76,152.35L277.3,171.07L278.38,157.49L278.92,124.76L279.46,173.95L280,158.04L280.54,155.18L281.08,148.38L281.62,150.48L282.16,159.39L282.7,137.96L283.24,144.56L283.78,158.68L284.86,147.2L285.41,153.24L285.95,151.07L286.49,131.66L287.03,133.79L287.57,128.34L288.11,145.92L288.65,144.68L289.19,147.47L289.73,148.72L290.27,156.33L290.81,139.22L291.35,145.3L291.89,141.38L294.05,158.62L294.59,154.58L296.22,163.88L296.76,152.63L297.3,168.46L297.84,150.61L298.38,166.57L298.92,158.43L299.46,164.81L300,143.62L300.54,162.6L301.08,147.47L302.16,165.01L302.7,149.12L303.24,152.48L303.78,175.8L304.32,167.88L304.86,171.42L305.41,172.79L305.95,178.79L307.57,161.31L308.11,172.48L309.19,165.4L309.73,180.25L310.27,184.32L310.81,179.47L311.35,168.91L311.89,178.62L312.43,174.76L312.97,183.69L314.59,166.16L315.14,163.74L315.68,164.25L316.22,171.84L316.76,171.96L317.3,177.06L317.84,166.69L318.38,178.55L318.92,190.08L319.46,162.18L320,157.87L320.54,181.29L321.62,156.58L322.16,161.81L322.7,160.61L323.24,163.66L324.32,153.6L324.86,138.92L325.41,154.03L325.95,129.12L326.49,167.09L327.03,141.87L327.57,148.29L328.11,140.33L328.65,150.42L329.19,141.41L329.73,138.11L330.27,144.34L330.81,138.11L331.35,138.32L331.89,135.78L332.43,134.3L332.97,125.36L333.51,138.95L334.05,123.74L334.59,111.27L335.14,118.45L335.68,129.39L336.22,128.06L336.76,108.97L337.3,118.9L337.84,107.62L338.38,103.61L338.92,109.18L339.46,84.82L340,104.12L341.08,106.17L341.62,102.28L342.16,94.95L342.7,95.77L343.24,105.28L343.78,90.66L344.32,98.88L344.86,98.3L345.41,90.37L345.95,72.66L346.49,85.49L347.03,78.1L347.57,99.01L348.11,79.84L348.65,87.7L349.73,71.68L350.27,110.06L351.35,84.7L351.89,95.47L352.43,85.13L352.97,87.34L353.51,90.25L354.05,85.34L354.59,90.38L355.14,85.16L355.68,90.04L356.22,78.11L356.76,100.88L357.3,101.01L357.84,90.58L358.38,97.36L358.92,119.35L359.46,113.44L360,118.89L360.54,118.95L361.08,112.28L362.16,95.67L362.7,105.44L364.32,132.06L364.86,106.48L365.95,138.88L366.49,131.02L368.11,160.64L368.65,146.35L369.73,175.19L370.27,172.89L370.81,177.07L371.35,167.94L371.89,167.64L372.43,182.21L372.97,178.78L373.51,180.6L374.05,206.44L374.59,180.61L375.14,207.57L375.68,183L376.76,220.97L377.3,218.94L377.84,207.62" style="vector-effect: non-scaling-stroke; fill: none; stroke: rgb(0, 0, 0); stroke-opacity: 1; stroke-width: 2px; opacity: 1;"/></g><g class="points"/><g class="text"/></g><g class="trace scatter trace8d9068" style="stroke-miterlimit: 2; opacity: 1;"><g class="fills"/><g class="errorbars"/><g class="lines"><path class="js-line" d="M0,137.71L6.49,154.73L7.03,155.86L10.81,161.99L11.35,162.61L14.59,164.93L15.14,165.09L17.84,165.04L18.38,164.86L21.62,162.88L22.16,162.41L27.57,156.43L28.11,155.76L36.76,146.06L37.3,145.63L41.08,143.77L41.62,143.69L44.32,144.1L44.86,144.37L47.57,146.67L48.11,147.33L51.35,152.82L51.89,153.98L56.22,165.64L56.76,167.36L64.32,194.85L64.86,196.87L71.35,218.24L71.89,219.64L75.68,227.06L76.22,227.74L78.92,229.64L79.46,229.7L81.62,228.84L82.16,228.34L84.86,224.18L85.41,223.01L88.65,213.65L89.19,211.71L93.51,192.49L94.05,189.66L100,153.38L100.54,149.72L112.97,68.39L113.51,65.67L117.3,50.38L117.84,48.8L120.54,43.34L121.08,42.76L122.7,42.07L123.24,42.19L124.86,43.6L125.41,44.42L127.57,49.41L128.11,51.07L131.35,64.31L131.89,67.02L136.22,93.33L136.76,97.12L143.24,148.47L143.78,153.07L155.14,244.79L155.68,248.37L160,272.06L160.54,274.32L163.78,284.25L164.32,285.26L166.49,287.38L167.03,287.43L168.65,286.39L169.19,285.66L171.35,280.83L171.89,279.16L175.14,265.46L175.68,262.61L180,234.8L180.54,230.79L188.11,167.54L188.65,162.8L197.3,92.6L197.84,88.89L202.7,61.27L203.24,58.92L206.49,48.18L207.03,46.97L209.19,43.87L209.73,43.53L211.35,43.53L211.89,43.87L214.05,46.91L214.59,48.08L217.3,56.2L217.84,58.26L221.62,76.12L222.16,79.1L228.65,120.15L229.19,123.81L238.92,184.97L239.46,187.77L244.32,208.51L244.86,210.28L248.65,219.46L249.19,220.3L251.89,222.82L252.43,222.99L254.59,222.57L255.14,222.2L257.84,218.9L258.38,217.97L261.62,210.68L262.16,209.21L267.57,191.88L268.11,189.98L277.84,157.98L278.38,156.61L282.16,149.08L282.7,148.33L285.41,145.8L285.95,145.54L288.11,145.34L288.65,145.49L291.35,147.29L291.89,147.84L295.68,153.07L296.22,153.96L307.03,171.27L307.57,171.81L310.81,173.85L311.35,173.97L314.05,173.55L314.59,173.26L317.3,170.76L317.84,170.05L321.08,164.4L321.62,163.23L325.95,151.93L326.49,150.3L334.05,124.56L334.59,122.64L342.7,96.92L343.24,95.58L347.03,88.45L347.57,87.79L350.27,86.05L350.81,86.03L352.97,87.17L353.51,87.76L355.68,91.41L356.22,92.65L359.46,102.81L360,104.95L364.32,126.23L364.86,129.36L370.81,168.33L371.35,172.12L377.84,216.05" style="vector-effect: non-scaling-stroke; fill: none; stroke: rgb(255, 0, 0); stroke-opacity: 1; stroke-width: 2px; opacity: 1;"/></g><g class="points"/><g class="text"/></g><g class="trace scatter traceb6e4cc" style="stroke-miterlimit: 2; opacity: 1;"><g class="fills"/><g class="errorbars"/><g class="lines"><path class="js-line" d="M378.38,227.52L378.92,222.79L379.46,231.44L380,201.31L380.54,217.73L381.08,241.93L381.62,237.8L382.16,239.77L382.7,253.24L383.24,249.95L383.78,249.06L384.32,261.08L384.86,234.45L385.95,262.13L386.49,269.24L387.03,251.08L387.57,260.16L389.19,283.2L389.73,264.57L390.27,271.35L390.81,261.94L391.35,277L391.89,268.13L392.43,265.61L392.97,267.44L393.51,282.21L394.05,278.97L394.59,278.84L395.68,270.67L396.22,276.37L396.76,271.6L397.3,273.23L397.84,275.97L398.92,246.03L399.46,260.43L400,277.37L400.54,263.96L401.08,247.45L401.62,260.39L402.7,252.83L403.24,240.49L403.78,256.39L404.32,247.24L404.86,230.27L405.41,243.11L407.57,206.78L408.11,221.29L408.65,202.76L409.19,206.24L409.73,195.17L410.81,175.4L411.35,177.82L412.43,186.64L412.97,179.79L413.51,168.27L414.05,173.57L414.59,147.4L415.14,170.7L416.22,136.53L416.76,142.23L417.3,140.52L417.84,125.57L418.92,113.48L419.46,119.01L420,92.61L420.54,102.05L421.08,101.43L421.62,107.29L422.16,106.56L422.7,76.65L423.24,92.14L423.78,74.13L424.32,77.29L424.86,64.96L425.41,80.45L425.95,64.52L426.49,49.74L427.03,53L427.57,55.57L428.11,59.6L428.65,49.46L429.19,50.86L429.73,41.73L430.27,36.84L430.81,24.81L431.35,24.71L431.89,37.19L432.43,26.46L432.97,45.24L434.05,17.25L434.59,46.53L435.14,20.49L435.68,38.65L436.22,40.1L436.76,23.93L437.3,37.55L437.84,35.36L438.38,29.59L438.92,16L439.46,34.1L440,28.97L440.54,39.69L441.08,42.98L441.62,41.23L442.16,31.3L442.7,35.96L443.24,39.77L443.78,38.05L444.32,38.67L444.86,59.04L445.41,58.02L445.95,52.87L447.03,70.29L447.57,68.87L448.11,57.29L448.65,64.68L450.27,86.2L450.81,82.93L451.35,74.84L451.89,97.29L452.43,91.18L452.97,107.06L453.51,117.53L454.05,110.75L455.68,129.66L456.22,125.68L457.3,143.69L457.84,150.29L458.38,138.6L458.92,151.55L459.46,163L460,150.36L461.08,178L461.62,173.08L462.16,193.71L462.7,190.38L463.24,188.33L463.78,207.18L464.32,201.15L464.86,196.73L465.41,194.49L465.95,216.18L466.49,210.61L467.03,219.18L467.57,219.53L468.11,232.92L468.65,224.11L469.19,231.09L469.73,249.26L470.27,234.88L470.81,253.12L471.35,248.61L471.89,252.96L472.43,243.13L472.97,261.28L474.05,236.04L474.59,262.73L475.14,260.75L475.68,268.25L476.22,255.19L476.76,259.44L477.3,265.15L478.38,256.53L478.92,263.06L479.46,270.22L480,266.13L480.54,277.36L481.08,272.77L481.62,277.8L482.16,274.51L482.7,256.16L483.24,273.01L483.78,277.91L484.32,259.59L484.86,257.49L485.41,264.77L485.95,267.5L486.49,258.32L487.03,237.53L487.57,251.89L488.65,245.52L489.19,229.84L489.73,255.99L490.27,245.54L490.81,243.68L491.35,236.62L491.89,258.49L492.43,242.43L492.97,237.94L493.51,210.66L494.05,227.96L494.59,215.2L495.14,219.47L495.68,210.43L496.76,198.54L497.3,216.69L498.38,186.33L498.92,193.81L499.46,191.84L500,180.88L500.54,194.49L501.08,172.83L501.62,181.39L502.16,175.07L502.7,174.01L503.24,158.17L504.32,171.86L504.86,147.85L505.41,145.24L505.95,148.04L506.49,152.67L507.03,152.11L507.57,129.93L508.11,146.15L508.65,135.07L510.27,129.54L510.81,111.96L511.35,129.61L511.89,124.39L512.43,131.48L513.51,92.23L514.05,113.47L514.59,98.95L515.14,109.9L515.68,121.87L516.22,103.41L516.76,96.44L517.3,110.79L518.38,93.17L518.92,98.07L519.46,87.54L520,101.44L520.54,83.15L521.08,96.94L521.62,97.91L522.16,91.39L522.7,84.63L523.24,117.04L523.78,89.74L524.32,100.12L524.86,88.59L525.41,96.62L525.95,90.89L526.49,113.97L527.03,104.44L528.11,81.67L528.65,100.95L529.19,113.76L529.73,109.37L530.27,98.89L531.35,116.22L531.89,109.65L532.97,95.7L533.51,107.71L535.14,135.26L535.68,115.8L536.22,125.74L536.76,115.04L537.3,111.25L537.84,134.29L538.38,144.07L538.92,115.75L539.46,127.54L540,124.3" style="vector-effect: non-scaling-stroke; fill: none; stroke: rgb(128, 128, 128); stroke-opacity: 1; stroke-width: 2px; opacity: 1;"/></g><g class="points"/><g class="text"/></g><g class="trace scatter trace2c3f6a" style="stroke-miterlimit: 2; opacity: 1;"><g class="fills"/><g class="errorbars"/><g class="lines"><path class="js-line" d="M378.38,219.35L380,231.3L380.54,228.24L381.08,228.5L381.62,233.37L384.86,254.66L385.41,252.71L387.03,262.44L387.57,261.84L388.11,262.89L389.19,268.2L389.73,272.56L390.27,272.33L390.81,273.28L391.35,271.94L391.89,273.64L393.51,271.13L394.05,273.31L395.14,275.35L395.68,274.67L397.3,272.88L397.84,272.35L398.38,272.4L398.92,267.32L400,259.62L400.54,261.37L401.08,260.23L401.62,255.87L403.24,251.19L403.78,246.83L404.32,246.38L404.86,244.26L413.51,167.7L414.05,163.39L414.59,161.12L415.14,154.15L415.68,153.24L416.22,148.42L419.46,116.3L420,112.67L421.62,95.72L422.16,93.98L422.7,92.8L423.24,86.05L424.32,78.42L424.86,74.82L427.57,54.59L428.11,51.82L429.19,47.89L429.73,46.15L432.97,26.97L433.51,28.89L434.05,29.21L434.59,25.71L435.14,28.92L435.68,26.65L436.76,30.88L437.3,29.73L438.92,33.25L439.46,30.66L441.08,35.04L441.62,38.02L442.7,40.27L443.24,41.13L444.86,44.37L445.41,49.24L448.65,69.61L449.19,71.63L454.05,108.18L454.59,112.54L465.41,208.06L465.95,209.16L468.65,228.69L469.19,230.85L471.35,246.66L471.89,249.81L474.05,258.59L474.59,255.88L476.22,263.22L476.76,262.74L477.3,262.92L477.84,264.02L479.46,262.54L480,263.95L480.54,264.22L481.08,266.66L482.7,270.63L483.24,267.56L484.32,269.77L484.86,267.3L485.95,263.7L486.49,263.45L487.03,261.34L487.57,255.17L489.19,247.02L489.73,241.15L490.27,241.49L490.81,239.8L491.89,235.29L492.43,237.52L493.51,234.65L494.05,227.63L495.68,217.54L496.22,213.25L500.54,181.34L501.08,180.56L502.7,170.7L503.24,168.29L505.95,149.43L506.49,146.11L507.57,143.3L508.11,138L508.65,136.98L509.19,134.13L512.43,119.54L512.97,120.12L515.68,104.19L516.22,106.12L517.3,101.44L517.84,102.1L518.38,101.15L520,94.65L520.54,95.11L521.08,91.91L521.62,92.07L522.16,92.59L523.24,89.93L523.78,95.06L524.32,94.11L524.86,95.5L525.41,94.42L525.95,95.18L526.49,94.73L527.03,99.15L527.57,101.15L528.11,100.32L528.65,97.46L529.19,98.87L529.73,102.78L532.43,112L532.97,110.69L533.51,109.04L534.05,109.95L536.76,125.73L537.3,125.54L537.84,124.4L538.38,127.98L538.92,133.04L539.46,131.51L540,133.21" style="vector-effect: non-scaling-stroke; fill: none; stroke: rgb(0, 0, 255); stroke-opacity: 0.8; stroke-width: 2px; opacity: 1;"/></g><g class="points"/><g class="text"/></g><g class="trace scatter trace762143" style="stroke-miterlimit: 2; opacity: 1;"><g class="fills"><g><path class="js-fill" d="M378.38,212.47L380,224.41L380.54,221.36L381.08,221.61L381.62,226.48L384.86,247.77L385.41,245.82L387.03,255.55L387.57,254.95L388.11,256L389.19,261.32L389.73,265.67L390.27,265.44L390.81,266.39L391.35,265.05L391.89,266.75L393.51,264.24L394.05,266.42L395.14,268.46L395.68,267.78L397.3,265.99L397.84,265.46L398.38,265.51L398.92,260.43L400,252.73L400.54,254.48L401.08,253.34L401.62,248.98L403.24,244.31L403.78,239.94L404.32,239.49L404.86,237.37L413.51,160.81L414.05,156.5L414.59,154.24L415.14,147.27L415.68,146.35L416.22,141.53L419.46,109.41L420,105.78L421.62,88.83L422.16,87.09L422.7,85.91L423.24,79.17L424.32,71.54L424.86,67.93L427.57,47.7L428.11,44.93L429.19,41.01L429.73,39.27L432.97,20.09L433.51,22L434.05,22.32L434.59,18.82L435.14,22.03L435.68,19.76L436.76,24L437.3,22.85L438.92,26.36L439.46,23.77L441.08,28.15L441.62,31.13L442.7,33.38L443.24,34.24L444.86,37.48L445.41,42.35L448.65,62.73L449.19,64.74L454.05,101.3L454.59,105.65L465.41,201.17L465.95,202.27L468.65,221.8L469.19,223.97L471.35,239.77L471.89,242.92L474.05,251.7L474.59,249L476.22,256.33L476.76,255.86L477.3,256.04L477.84,257.13L479.46,255.65L480,257.06L480.54,257.33L481.08,259.77L482.7,263.74L483.24,260.67L484.32,262.88L484.86,260.41L485.95,256.81L486.49,256.56L487.03,254.45L487.57,248.28L489.19,240.13L489.73,234.27L490.27,234.6L490.81,232.91L491.89,228.4L492.43,230.63L493.51,227.76L494.05,220.74L495.68,210.65L496.22,206.36L500.54,174.46L501.08,173.67L502.7,163.82L503.24,161.4L505.95,142.54L506.49,139.22L507.57,136.41L508.11,131.11L508.65,130.09L509.19,127.25L512.43,112.65L512.97,113.23L515.68,97.3L516.22,99.23L517.3,94.55L517.84,95.21L518.38,94.26L520,87.77L520.54,88.22L521.08,85.02L521.62,85.18L522.16,85.7L523.24,83.04L523.78,88.18L524.32,87.22L524.86,88.61L525.41,87.53L525.95,88.29L526.49,87.84L527.03,92.26L527.57,94.26L528.11,93.44L528.65,90.57L529.19,91.99L529.73,95.89L532.43,105.11L532.97,103.81L533.51,102.16L534.05,103.06L536.76,118.85L537.3,118.65L537.84,117.51L538.38,121.09L538.92,126.15L539.46,124.62L540,125.57L540,140.84L539.46,138.4L538.92,139.93L537.84,131.29L537.3,132.43L536.76,132.62L536.22,130.16L535.68,129.51L535.14,124.1L533.51,115.93L532.97,117.58L532.43,118.89L531.89,117.39L530.81,112.28L530.27,112.22L528.65,104.34L528.11,107.21L527.57,108.04L527.03,106.03L526.49,101.61L525.95,102.07L525.41,101.31L524.86,102.39L524.32,101L523.78,101.95L523.24,96.82L522.16,99.47L521.62,98.96L521.08,98.79L520.54,102L520,101.54L519.46,104.47L517.84,108.99L517.3,108.33L516.22,113.01L515.68,111.08L515.14,112.01L514.59,115.91L514.05,117.23L513.51,123.95L512.97,127.01L512.43,126.42L511.89,127.76L511.35,128.42L510.81,133.62L508.11,144.89L507.57,150.18L506.49,153L505.95,156.31L503.24,175.18L502.7,177.59L498.92,198.64L498.38,204.26L496.22,220.14L495.68,224.42L494.05,234.52L493.51,241.54L492.43,244.41L491.89,242.18L490.27,248.37L489.73,248.04L488.11,259.57L487.57,262.06L486.49,270.34L485.95,270.58L485.41,271.5L484.86,274.19L484.32,276.65L483.78,275.11L483.24,274.44L482.7,277.52L481.08,273.54L480.54,271.1L480,270.83L479.46,269.43L478.92,269.34L478.38,270.54L477.84,270.91L477.3,269.81L476.22,270.11L475.68,267.29L474.59,262.77L474.05,265.48L473.51,264.29L472.97,260.49L472.43,259.99L471.89,256.7L467.57,227.61L467.03,223.82L464.32,208.4L463.78,201.7L461.62,181.88L461.08,175.96L458.92,158.57L458.38,156.3L451.89,94.49L451.35,93.61L445.41,56.13L444.86,51.26L442.16,47.2L441.62,44.91L440,39.04L439.46,37.54L438.92,40.14L438.38,39.97L437.84,38.56L437.3,36.62L436.76,37.77L435.68,33.54L435.14,35.81L434.59,32.6L434.05,36.1L433.51,35.78L432.97,33.86L431.35,41.51L430.81,46.64L428.11,58.71L427.57,61.47L422.16,100.86L421.62,102.61L419.46,123.18L418.92,129.11L415.68,160.12L415.14,161.04L413.51,174.58L412.97,177.26L411.89,182.95L411.35,188.69L408.65,219.44L408.11,221.98L405.41,245.91L404.86,251.14L400.54,268.25L400,266.5L399.46,268.55L398.92,274.21L398.38,279.29L397.84,279.23L397.3,279.76L395.14,282.24L394.59,281.35L393.51,278.02L392.97,278.85L391.89,280.53L391.35,278.82L390.81,280.17L390.27,279.22L389.73,279.45L389.19,275.09L387.57,268.73L387.03,269.33L385.41,259.6L384.86,261.55L381.08,235.39L380.54,235.13L380,238.19L379.46,234.15L378.38,226.24Z" style="fill: rgb(0, 0, 255); fill-opacity: 0.1; stroke-width: 0;"/></g></g><g class="errorbars"/><g class="lines"><path class="js-line" d="M378.38,212.47L380,224.41L380.54,221.36L381.08,221.61L381.62,226.48L384.86,247.77L385.41,245.82L387.03,255.55L387.57,254.95L388.11,256L389.19,261.32L389.73,265.67L390.27,265.44L390.81,266.39L391.35,265.05L391.89,266.75L393.51,264.24L394.05,266.42L395.14,268.46L395.68,267.78L397.3,265.99L397.84,265.46L398.38,265.51L398.92,260.43L400,252.73L400.54,254.48L401.08,253.34L401.62,248.98L403.24,244.31L403.78,239.94L404.32,239.49L404.86,237.37L413.51,160.81L414.05,156.5L414.59,154.24L415.14,147.27L415.68,146.35L416.22,141.53L419.46,109.41L420,105.78L421.62,88.83L422.16,87.09L422.7,85.91L423.24,79.17L424.32,71.54L424.86,67.93L427.57,47.7L428.11,44.93L429.19,41.01L429.73,39.27L432.97,20.09L433.51,22L434.05,22.32L434.59,18.82L435.14,22.03L435.68,19.76L436.76,24L437.3,22.85L438.92,26.36L439.46,23.77L441.08,28.15L441.62,31.13L442.7,33.38L443.24,34.24L444.86,37.48L445.41,42.35L448.65,62.73L449.19,64.74L454.05,101.3L454.59,105.65L465.41,201.17L465.95,202.27L468.65,221.8L469.19,223.97L471.35,239.77L471.89,242.92L474.05,251.7L474.59,249L476.22,256.33L476.76,255.86L477.3,256.04L477.84,257.13L479.46,255.65L480,257.06L480.54,257.33L481.08,259.77L482.7,263.74L483.24,260.67L484.32,262.88L484.86,260.41L485.95,256.81L486.49,256.56L487.03,254.45L487.57,248.28L489.19,240.13L489.73,234.27L490.27,234.6L490.81,232.91L491.89,228.4L492.43,230.63L493.51,227.76L494.05,220.74L495.68,210.65L496.22,206.36L500.54,174.46L501.08,173.67L502.7,163.82L503.24,161.4L505.95,142.54L506.49,139.22L507.57,136.41L508.11,131.11L508.65,130.09L509.19,127.25L512.43,112.65L512.97,113.23L515.68,97.3L516.22,99.23L517.3,94.55L517.84,95.21L518.38,94.26L520,87.77L520.54,88.22L521.08,85.02L521.62,85.18L522.16,85.7L523.24,83.04L523.78,88.18L524.32,87.22L524.86,88.61L525.41,87.53L525.95,88.29L526.49,87.84L527.03,92.26L527.57,94.26L528.11,93.44L528.65,90.57L529.19,91.99L529.73,95.89L532.43,105.11L532.97,103.81L533.51,102.16L534.05,103.06L536.76,118.85L537.3,118.65L537.84,117.51L538.38,121.09L538.92,126.15L539.46,124.62L540,125.57L540,140.84L539.46,138.4L538.92,139.93L537.84,131.29L537.3,132.43L536.76,132.62L536.22,130.16L535.68,129.51L535.14,124.1L533.51,115.93L532.97,117.58L532.43,118.89L531.89,117.39L530.81,112.28L530.27,112.22L528.65,104.34L528.11,107.21L527.57,108.04L527.03,106.03L526.49,101.61L525.95,102.07L525.41,101.31L524.86,102.39L524.32,101L523.78,101.95L523.24,96.82L522.16,99.47L521.62,98.96L521.08,98.79L520.54,102L520,101.54L519.46,104.47L517.84,108.99L517.3,108.33L516.22,113.01L515.68,111.08L515.14,112.01L514.59,115.91L514.05,117.23L513.51,123.95L512.97,127.01L512.43,126.42L511.89,127.76L511.35,128.42L510.81,133.62L508.11,144.89L507.57,150.18L506.49,153L505.95,156.31L503.24,175.18L502.7,177.59L498.92,198.64L498.38,204.26L496.22,220.14L495.68,224.42L494.05,234.52L493.51,241.54L492.43,244.41L491.89,242.18L490.27,248.37L489.73,248.04L488.11,259.57L487.57,262.06L486.49,270.34L485.95,270.58L485.41,271.5L484.86,274.19L484.32,276.65L483.78,275.11L483.24,274.44L482.7,277.52L481.08,273.54L480.54,271.1L480,270.83L479.46,269.43L478.92,269.34L478.38,270.54L477.84,270.91L477.3,269.81L476.22,270.11L475.68,267.29L474.59,262.77L474.05,265.48L473.51,264.29L472.97,260.49L472.43,259.99L471.89,256.7L467.57,227.61L467.03,223.82L464.32,208.4L463.78,201.7L461.62,181.88L461.08,175.96L458.92,158.57L458.38,156.3L451.89,94.49L451.35,93.61L445.41,56.13L444.86,51.26L442.16,47.2L441.62,44.91L440,39.04L439.46,37.54L438.92,40.14L438.38,39.97L437.84,38.56L437.3,36.62L436.76,37.77L435.68,33.54L435.14,35.81L434.59,32.6L434.05,36.1L433.51,35.78L432.97,33.86L431.35,41.51L430.81,46.64L428.11,58.71L427.57,61.47L422.16,100.86L421.62,102.61L419.46,123.18L418.92,129.11L415.68,160.12L415.14,161.04L413.51,174.58L412.97,177.26L411.89,182.95L411.35,188.69L408.65,219.44L408.11,221.98L405.41,245.91L404.86,251.14L400.54,268.25L400,266.5L399.46,268.55L398.92,274.21L398.38,279.29L397.84,279.23L397.3,279.76L395.14,282.24L394.59,281.35L393.51,278.02L392.97,278.85L391.89,280.53L391.35,278.82L390.81,280.17L390.27,279.22L389.73,279.45L389.19,275.09L387.57,268.73L387.03,269.33L385.41,259.6L384.86,261.55L381.08,235.39L380.54,235.13L380,238.19L379.46,234.15L378.38,226.24" style="vector-effect: non-scaling-stroke; fill: none; stroke: rgb(255, 255, 255); stroke-opacity: 0; stroke-width: 2px; opacity: 1;"/></g><g class="points"/><g class="text"/></g></g></g><g class="overplot"/><path class="xlines-above crisp" d="M0,0" style="fill: none;"/><path class="ylines-above crisp" d="M0,0" style="fill: none;"/><g class="overlines-above"/><g class="xaxislayer-above"><g class="xtick"><text text-anchor="middle" x="0" y="433" transform="translate(80,0)" style="font-family: 'Open Sans', verdana, arial, sans-serif; font-size: 12px; fill: rgb(42, 63, 95); fill-opacity: 1; white-space: pre;"><tspan class="line" dy="0em" x="0" y="433">00:00</tspan><tspan class="line" dy="1.3em" x="0" y="433">Jan 1, 2021</tspan></text></g><g class="xtick"><text text-anchor="middle" x="0" y="433" transform="translate(188.11,0)" style="font-family: 'Open Sans', verdana, arial, sans-serif; font-size: 12px; fill: rgb(42, 63, 95); fill-opacity: 1; white-space: pre;">00:10</text></g><g class="xtick"><text text-anchor="middle" x="0" y="433" transform="translate(296.22,0)" style="font-family: 'Open Sans', verdana, arial, sans-serif; font-size: 12px; fill: rgb(42, 63, 95); fill-opacity: 1; white-space: pre;">00:20</text></g><g class="xtick"><text text-anchor="middle" x="0" y="433" transform="translate(404.32,0)" style="font-family: 'Open Sans', verdana, arial, sans-serif; font-size: 12px; fill: rgb(42, 63, 95); fill-opacity: 1; white-space: pre;">00:30</text></g><g class="xtick"><text text-anchor="middle" x="0" y="433" transform="translate(512.4300000000001,0)" style="font-family: 'Open Sans', verdana, arial, sans-serif; font-size: 12px; fill: rgb(42, 63, 95); fill-opacity: 1; white-space: pre;">00:40</text></g></g><g class="yaxislayer-above"><g class="ytick"><text text-anchor="end" x="79" y="4.199999999999999" transform="translate(0,389.23)" style="font-family: 'Open Sans', verdana, arial, sans-serif; font-size: 12px; fill: rgb(42, 63, 95); fill-opacity: 1; white-space: pre;">400</text></g><g class="ytick"><text text-anchor="end" x="79" y="4.199999999999999" transform="translate(0,323.9)" style="font-family: 'Open Sans', verdana, arial, sans-serif; font-size: 12px; fill: rgb(42, 63, 95); fill-opacity: 1; white-space: pre;">450</text></g><g class="ytick"><text text-anchor="end" x="79" y="4.199999999999999" transform="translate(0,258.57)" style="font-family: 'Open Sans', verdana, arial, sans-serif; font-size: 12px; fill: rgb(42, 63, 95); fill-opacity: 1; white-space: pre;">500</text></g><g class="ytick"><text text-anchor="end" x="79" y="4.199999999999999" transform="translate(0,193.24)" style="font-family: 'Open Sans', verdana, arial, sans-serif; font-size: 12px; fill: rgb(42, 63, 95); fill-opacity: 1; white-space: pre;">550</text></g><g class="ytick"><text text-anchor="end" x="79" y="4.199999999999999" transform="translate(0,127.9)" style="font-family: 'Open Sans', verdana, arial, sans-serif; font-size: 12px; fill: rgb(42, 63, 95); fill-opacity: 1; white-space: pre;">600</text></g></g><g class="overaxes-above"/></g></g><g class="polarlayer"/><g class="ternarylayer"/><g class="geolayer"/><g class="funnelarealayer"/><g class="pielayer"/><g class="treemaplayer"/><g class="sunburstlayer"/><g class="glimages"/><defs id="topdefs-ca2b46"><g class="clips"/><clipPath id="legendca2b46"><rect width="311" height="67" x="0" y="0"/></clipPath></defs><g class="layer-above"><g class="imagelayer"/><g class="shapelayer"/></g><g class="infolayer"><g class="legend" pointer-events="all" transform="translate(309,26.599999999999994)"><rect class="bg" shape-rendering="crispEdges" width="311" height="67" x="0" y="0" style="stroke: rgb(68, 68, 68); stroke-opacity: 1; fill: rgb(255, 255, 255); fill-opacity: 1; stroke-width: 0px;"/><g class="scrollbox" transform="" clip-path="url('#legendca2b46')"><g class="groups"><g class="traces" transform="translate(0,14.5)" style="opacity: 1;"><text class="legendtext" text-anchor="start" x="40" y="4.680000000000001" style="font-family: 'Open Sans', verdana, arial, sans-serif; font-size: 12px; fill: rgb(42, 63, 95); fill-opacity: 1; white-space: pre;">Training data</text><g class="layers" style="opacity: 1;"><g class="legendfill"/><g class="legendlines"><path class="js-line" d="M5,0h30" style="fill: none; stroke: rgb(0, 0, 0); stroke-opacity: 1; stroke-width: 2px;"/></g><g class="legendsymbols"><g class="legendpoints"/></g></g><rect class="legendtoggle" x="0" y="-9.5" width="122.3125" height="19" style="fill: rgb(0, 0, 0); fill-opacity: 0;"/></g><g class="traces" transform="translate(206.140625,14.5)" style="opacity: 1;"><text class="legendtext" text-anchor="start" x="40" y="4.680000000000001" style="font-family: 'Open Sans', verdana, arial, sans-serif; font-size: 12px; fill: rgb(42, 63, 95); fill-opacity: 1; white-space: pre;">Model</text><g class="layers" style="opacity: 1;"><g class="legendfill"/><g class="legendlines"><path class="js-line" d="M5,0h30" style="fill: none; stroke: rgb(255, 0, 0); stroke-opacity: 1; stroke-width: 2px;"/></g><g class="legendsymbols"><g class="legendpoints"/></g></g><rect class="legendtoggle" x="0" y="-9.5" width="77.828125" height="19" style="fill: rgb(0, 0, 0); fill-opacity: 0;"/></g><g class="traces" transform="translate(0,33.5)" style="opacity: 1;"><text class="legendtext" text-anchor="start" x="40" y="4.680000000000001" style="font-family: 'Open Sans', verdana, arial, sans-serif; font-size: 12px; fill: rgb(42, 63, 95); fill-opacity: 1; white-space: pre;">Testing data</text><g class="layers" style="opacity: 1;"><g class="legendfill"/><g class="legendlines"><path class="js-line" d="M5,0h30" style="fill: none; stroke: rgb(128, 128, 128); stroke-opacity: 1; stroke-width: 2px;"/></g><g class="legendsymbols"><g class="legendpoints"/></g></g><rect class="legendtoggle" x="0" y="-9.5" width="117.234375" height="19" style="fill: rgb(0, 0, 0); fill-opacity: 0;"/></g><g class="traces" transform="translate(206.140625,33.5)" style="opacity: 1;"><text class="legendtext" text-anchor="start" x="40" y="4.680000000000001" style="font-family: 'Open Sans', verdana, arial, sans-serif; font-size: 12px; fill: rgb(42, 63, 95); fill-opacity: 1; white-space: pre;">Prediction</text><g class="layers" style="opacity: 1;"><g class="legendfill"/><g class="legendlines"><path class="js-line" d="M5,0h30" style="fill: none; stroke: rgb(0, 0, 255); stroke-opacity: 0.8; stroke-width: 2px;"/></g><g class="legendsymbols"><g class="legendpoints"/></g></g><rect class="legendtoggle" x="0" y="-9.5" width="101.9375" height="19" style="fill: rgb(0, 0, 0); fill-opacity: 0;"/></g><g class="traces" transform="translate(0,52.5)" style="opacity: 1;"><text class="legendtext" text-anchor="start" x="40" y="4.680000000000001" style="font-family: 'Open Sans', verdana, arial, sans-serif; font-size: 12px; fill: rgb(42, 63, 95); fill-opacity: 1; white-space: pre;">Confidence Interval (95%)</text><g class="layers" style="opacity: 1;"><g class="legendfill"><path class="js-fill" d="M5,-2h30v6h-30z" style="stroke-width: 0; fill: rgb(0, 0, 255); fill-opacity: 0.1;"/></g><g class="legendlines"><path class="js-line" d="M5,-2h30" style="fill: none; stroke: rgb(255, 255, 255); stroke-opacity: 0; stroke-width: 2px;"/></g><g class="legendsymbols"><g class="legendpoints"/></g></g><rect class="legendtoggle" x="0" y="-9.5" width="203.640625" height="19" style="fill: rgb(0, 0, 0); fill-opacity: 0;"/></g></g></g><rect class="scrollbar" rx="20" ry="3" width="0" height="0" x="0" y="0" style="fill: rgb(128, 139, 164); fill-opacity: 1;"/></g><g class="g-gtitle"/><g class="g-xtitle"/><g class="g-ytitle"/></g></svg>