<?xml version="1.0" encoding="utf-8" standalone="no"?>
<!DOCTYPE svg PUBLIC "-//W3C//DTD SVG 1.1//EN"
  "http://www.w3.org/Graphics/SVG/1.1/DTD/svg11.dtd">
<!-- Created with matplotlib (https://matplotlib.org/) -->
<svg height="360pt" version="1.1" viewBox="0 0 720 360" width="720pt" xmlns="http://www.w3.org/2000/svg" xmlns:xlink="http://www.w3.org/1999/xlink">
 <metadata>
  <rdf:RDF xmlns:cc="http://creativecommons.org/ns#" xmlns:dc="http://purl.org/dc/elements/1.1/" xmlns:rdf="http://www.w3.org/1999/02/22-rdf-syntax-ns#">
   <cc:Work>
    <dc:type rdf:resource="http://purl.org/dc/dcmitype/StillImage"/>
    <dc:date>2021-02-18T11:51:58.820784</dc:date>
    <dc:format>image/svg+xml</dc:format>
    <dc:creator>
     <cc:Agent>
      <dc:title>Matplotlib v3.3.4, https://matplotlib.org/</dc:title>
     </cc:Agent>
    </dc:creator>
   </cc:Work>
  </rdf:RDF>
 </metadata>
 <defs>
  <style type="text/css">*{stroke-linecap:butt;stroke-linejoin:round;}</style>
 </defs>
 <g id="figure_1">
  <g id="patch_1">
   <path d="M 0 360 
L 720 360 
L 720 0 
L 0 0 
z
" style="fill:none;"/>
  </g>
  <g id="axes_1">
   <g id="patch_2">
    <path d="M 90 315 
L 648 315 
L 648 43.2 
L 90 43.2 
z
" style="fill:#ffffff;"/>
   </g>
   <g id="matplotlib.axis_1">
    <g id="xtick_1">
     <g id="line2d_1">
      <path clip-path="url(#p23af18220a)" d="M 115.363636 315 
L 115.363636 43.2 
" style="fill:none;stroke:#b0b0b0;stroke-linecap:square;stroke-width:0.8;"/>
     </g>
     <g id="line2d_2">
      <defs>
       <path d="M 0 0 
L 0 3.5 
" id="m3000240ccb" style="stroke:#000000;stroke-width:0.8;"/>
      </defs>
      <g>
       <use style="stroke:#000000;stroke-width:0.8;" x="115.363636" xlink:href="#m3000240ccb" y="315"/>
      </g>
     </g>
     <g id="text_1">
      <!-- 01 00:35 -->
      <g transform="translate(93.002699 329.598437)scale(0.1 -0.1)">
       <defs>
        <path d="M 31.78125 66.40625 
Q 24.171875 66.40625 20.328125 58.90625 
Q 16.5 51.421875 16.5 36.375 
Q 16.5 21.390625 20.328125 13.890625 
Q 24.171875 6.390625 31.78125 6.390625 
Q 39.453125 6.390625 43.28125 13.890625 
Q 47.125 21.390625 47.125 36.375 
Q 47.125 51.421875 43.28125 58.90625 
Q 39.453125 66.40625 31.78125 66.40625 
z
M 31.78125 74.21875 
Q 44.046875 74.21875 50.515625 64.515625 
Q 56.984375 54.828125 56.984375 36.375 
Q 56.984375 17.96875 50.515625 8.265625 
Q 44.046875 -1.421875 31.78125 -1.421875 
Q 19.53125 -1.421875 13.0625 8.265625 
Q 6.59375 17.96875 6.59375 36.375 
Q 6.59375 54.828125 13.0625 64.515625 
Q 19.53125 74.21875 31.78125 74.21875 
z
" id="DejaVuSans-48"/>
        <path d="M 12.40625 8.296875 
L 28.515625 8.296875 
L 28.515625 63.921875 
L 10.984375 60.40625 
L 10.984375 69.390625 
L 28.421875 72.90625 
L 38.28125 72.90625 
L 38.28125 8.296875 
L 54.390625 8.296875 
L 54.390625 0 
L 12.40625 0 
z
" id="DejaVuSans-49"/>
        <path id="DejaVuSans-32"/>
        <path d="M 11.71875 12.40625 
L 22.015625 12.40625 
L 22.015625 0 
L 11.71875 0 
z
M 11.71875 51.703125 
L 22.015625 51.703125 
L 22.015625 39.3125 
L 11.71875 39.3125 
z
" id="DejaVuSans-58"/>
        <path d="M 40.578125 39.3125 
Q 47.65625 37.796875 51.625 33 
Q 55.609375 28.21875 55.609375 21.1875 
Q 55.609375 10.40625 48.1875 4.484375 
Q 40.765625 -1.421875 27.09375 -1.421875 
Q 22.515625 -1.421875 17.65625 -0.515625 
Q 12.796875 0.390625 7.625 2.203125 
L 7.625 11.71875 
Q 11.71875 9.328125 16.59375 8.109375 
Q 21.484375 6.890625 26.8125 6.890625 
Q 36.078125 6.890625 40.9375 10.546875 
Q 45.796875 14.203125 45.796875 21.1875 
Q 45.796875 27.640625 41.28125 31.265625 
Q 36.765625 34.90625 28.71875 34.90625 
L 20.21875 34.90625 
L 20.21875 43.015625 
L 29.109375 43.015625 
Q 36.375 43.015625 40.234375 45.921875 
Q 44.09375 48.828125 44.09375 54.296875 
Q 44.09375 59.90625 40.109375 62.90625 
Q 36.140625 65.921875 28.71875 65.921875 
Q 24.65625 65.921875 20.015625 65.03125 
Q 15.375 64.15625 9.8125 62.3125 
L 9.8125 71.09375 
Q 15.4375 72.65625 20.34375 73.4375 
Q 25.25 74.21875 29.59375 74.21875 
Q 40.828125 74.21875 47.359375 69.109375 
Q 53.90625 64.015625 53.90625 55.328125 
Q 53.90625 49.265625 50.4375 45.09375 
Q 46.96875 40.921875 40.578125 39.3125 
z
" id="DejaVuSans-51"/>
        <path d="M 10.796875 72.90625 
L 49.515625 72.90625 
L 49.515625 64.59375 
L 19.828125 64.59375 
L 19.828125 46.734375 
Q 21.96875 47.46875 24.109375 47.828125 
Q 26.265625 48.1875 28.421875 48.1875 
Q 40.625 48.1875 47.75 41.5 
Q 54.890625 34.8125 54.890625 23.390625 
Q 54.890625 11.625 47.5625 5.09375 
Q 40.234375 -1.421875 26.90625 -1.421875 
Q 22.3125 -1.421875 17.546875 -0.640625 
Q 12.796875 0.140625 7.71875 1.703125 
L 7.71875 11.625 
Q 12.109375 9.234375 16.796875 8.0625 
Q 21.484375 6.890625 26.703125 6.890625 
Q 35.15625 6.890625 40.078125 11.328125 
Q 45.015625 15.765625 45.015625 23.390625 
Q 45.015625 31 40.078125 35.4375 
Q 35.15625 39.890625 26.703125 39.890625 
Q 22.75 39.890625 18.8125 39.015625 
Q 14.890625 38.140625 10.796875 36.28125 
z
" id="DejaVuSans-53"/>
       </defs>
       <use xlink:href="#DejaVuSans-48"/>
       <use x="63.623047" xlink:href="#DejaVuSans-49"/>
       <use x="127.246094" xlink:href="#DejaVuSans-32"/>
       <use x="159.033203" xlink:href="#DejaVuSans-48"/>
       <use x="222.65625" xlink:href="#DejaVuSans-48"/>
       <use x="286.279297" xlink:href="#DejaVuSans-58"/>
       <use x="319.970703" xlink:href="#DejaVuSans-51"/>
       <use x="383.59375" xlink:href="#DejaVuSans-53"/>
      </g>
     </g>
    </g>
    <g id="xtick_2">
     <g id="line2d_3">
      <path clip-path="url(#p23af18220a)" d="M 285.020067 315 
L 285.020067 43.2 
" style="fill:none;stroke:#b0b0b0;stroke-linecap:square;stroke-width:0.8;"/>
     </g>
     <g id="line2d_4">
      <g>
       <use style="stroke:#000000;stroke-width:0.8;" x="285.020067" xlink:href="#m3000240ccb" y="315"/>
      </g>
     </g>
     <g id="text_2">
      <!-- 01 00:40 -->
      <g transform="translate(262.659129 329.598437)scale(0.1 -0.1)">
       <defs>
        <path d="M 37.796875 64.3125 
L 12.890625 25.390625 
L 37.796875 25.390625 
z
M 35.203125 72.90625 
L 47.609375 72.90625 
L 47.609375 25.390625 
L 58.015625 25.390625 
L 58.015625 17.1875 
L 47.609375 17.1875 
L 47.609375 0 
L 37.796875 0 
L 37.796875 17.1875 
L 4.890625 17.1875 
L 4.890625 26.703125 
z
" id="DejaVuSans-52"/>
       </defs>
       <use xlink:href="#DejaVuSans-48"/>
       <use x="63.623047" xlink:href="#DejaVuSans-49"/>
       <use x="127.246094" xlink:href="#DejaVuSans-32"/>
       <use x="159.033203" xlink:href="#DejaVuSans-48"/>
       <use x="222.65625" xlink:href="#DejaVuSans-48"/>
       <use x="286.279297" xlink:href="#DejaVuSans-58"/>
       <use x="319.970703" xlink:href="#DejaVuSans-52"/>
       <use x="383.59375" xlink:href="#DejaVuSans-48"/>
      </g>
     </g>
    </g>
    <g id="xtick_3">
     <g id="line2d_5">
      <path clip-path="url(#p23af18220a)" d="M 454.676497 315 
L 454.676497 43.2 
" style="fill:none;stroke:#b0b0b0;stroke-linecap:square;stroke-width:0.8;"/>
     </g>
     <g id="line2d_6">
      <g>
       <use style="stroke:#000000;stroke-width:0.8;" x="454.676497" xlink:href="#m3000240ccb" y="315"/>
      </g>
     </g>
     <g id="text_3">
      <!-- 01 00:45 -->
      <g transform="translate(432.31556 329.598437)scale(0.1 -0.1)">
       <use xlink:href="#DejaVuSans-48"/>
       <use x="63.623047" xlink:href="#DejaVuSans-49"/>
       <use x="127.246094" xlink:href="#DejaVuSans-32"/>
       <use x="159.033203" xlink:href="#DejaVuSans-48"/>
       <use x="222.65625" xlink:href="#DejaVuSans-48"/>
       <use x="286.279297" xlink:href="#DejaVuSans-58"/>
       <use x="319.970703" xlink:href="#DejaVuSans-52"/>
       <use x="383.59375" xlink:href="#DejaVuSans-53"/>
      </g>
     </g>
    </g>
    <g id="xtick_4">
     <g id="line2d_7">
      <path clip-path="url(#p23af18220a)" d="M 624.332928 315 
L 624.332928 43.2 
" style="fill:none;stroke:#b0b0b0;stroke-linecap:square;stroke-width:0.8;"/>
     </g>
     <g id="line2d_8">
      <g>
       <use style="stroke:#000000;stroke-width:0.8;" x="624.332928" xlink:href="#m3000240ccb" y="315"/>
      </g>
     </g>
     <g id="text_4">
      <!-- 01 00:50 -->
      <g transform="translate(601.97199 329.598437)scale(0.1 -0.1)">
       <use xlink:href="#DejaVuSans-48"/>
       <use x="63.623047" xlink:href="#DejaVuSans-49"/>
       <use x="127.246094" xlink:href="#DejaVuSans-32"/>
       <use x="159.033203" xlink:href="#DejaVuSans-48"/>
       <use x="222.65625" xlink:href="#DejaVuSans-48"/>
       <use x="286.279297" xlink:href="#DejaVuSans-58"/>
       <use x="319.970703" xlink:href="#DejaVuSans-53"/>
       <use x="383.59375" xlink:href="#DejaVuSans-48"/>
      </g>
     </g>
    </g>
   </g>
   <g id="matplotlib.axis_2">
    <g id="ytick_1">
     <g id="line2d_9">
      <path clip-path="url(#p23af18220a)" d="M 90 308.222982 
L 648 308.222982 
" style="fill:none;stroke:#b0b0b0;stroke-linecap:square;stroke-width:0.8;"/>
     </g>
     <g id="line2d_10">
      <defs>
       <path d="M 0 0 
L -3.5 0 
" id="mdfb9a37781" style="stroke:#000000;stroke-width:0.8;"/>
      </defs>
      <g>
       <use style="stroke:#000000;stroke-width:0.8;" x="90" xlink:href="#mdfb9a37781" y="308.222982"/>
      </g>
     </g>
     <g id="text_5">
      <!-- 400 -->
      <g transform="translate(63.9125 312.0222)scale(0.1 -0.1)">
       <use xlink:href="#DejaVuSans-52"/>
       <use x="63.623047" xlink:href="#DejaVuSans-48"/>
       <use x="127.246094" xlink:href="#DejaVuSans-48"/>
      </g>
     </g>
    </g>
    <g id="ytick_2">
     <g id="line2d_11">
      <path clip-path="url(#p23af18220a)" d="M 90 278.015337 
L 648 278.015337 
" style="fill:none;stroke:#b0b0b0;stroke-linecap:square;stroke-width:0.8;"/>
     </g>
     <g id="line2d_12">
      <g>
       <use style="stroke:#000000;stroke-width:0.8;" x="90" xlink:href="#mdfb9a37781" y="278.015337"/>
      </g>
     </g>
     <g id="text_6">
      <!-- 425 -->
      <g transform="translate(63.9125 281.814556)scale(0.1 -0.1)">
       <defs>
        <path d="M 19.1875 8.296875 
L 53.609375 8.296875 
L 53.609375 0 
L 7.328125 0 
L 7.328125 8.296875 
Q 12.9375 14.109375 22.625 23.890625 
Q 32.328125 33.6875 34.8125 36.53125 
Q 39.546875 41.84375 41.421875 45.53125 
Q 43.3125 49.21875 43.3125 52.78125 
Q 43.3125 58.59375 39.234375 62.25 
Q 35.15625 65.921875 28.609375 65.921875 
Q 23.96875 65.921875 18.8125 64.3125 
Q 13.671875 62.703125 7.8125 59.421875 
L 7.8125 69.390625 
Q 13.765625 71.78125 18.9375 73 
Q 24.125 74.21875 28.421875 74.21875 
Q 39.75 74.21875 46.484375 68.546875 
Q 53.21875 62.890625 53.21875 53.421875 
Q 53.21875 48.921875 51.53125 44.890625 
Q 49.859375 40.875 45.40625 35.40625 
Q 44.1875 33.984375 37.640625 27.21875 
Q 31.109375 20.453125 19.1875 8.296875 
z
" id="DejaVuSans-50"/>
       </defs>
       <use xlink:href="#DejaVuSans-52"/>
       <use x="63.623047" xlink:href="#DejaVuSans-50"/>
       <use x="127.246094" xlink:href="#DejaVuSans-53"/>
      </g>
     </g>
    </g>
    <g id="ytick_3">
     <g id="line2d_13">
      <path clip-path="url(#p23af18220a)" d="M 90 247.807692 
L 648 247.807692 
" style="fill:none;stroke:#b0b0b0;stroke-linecap:square;stroke-width:0.8;"/>
     </g>
     <g id="line2d_14">
      <g>
       <use style="stroke:#000000;stroke-width:0.8;" x="90" xlink:href="#mdfb9a37781" y="247.807692"/>
      </g>
     </g>
     <g id="text_7">
      <!-- 450 -->
      <g transform="translate(63.9125 251.606911)scale(0.1 -0.1)">
       <use xlink:href="#DejaVuSans-52"/>
       <use x="63.623047" xlink:href="#DejaVuSans-53"/>
       <use x="127.246094" xlink:href="#DejaVuSans-48"/>
      </g>
     </g>
    </g>
    <g id="ytick_4">
     <g id="line2d_15">
      <path clip-path="url(#p23af18220a)" d="M 90 217.600047 
L 648 217.600047 
" style="fill:none;stroke:#b0b0b0;stroke-linecap:square;stroke-width:0.8;"/>
     </g>
     <g id="line2d_16">
      <g>
       <use style="stroke:#000000;stroke-width:0.8;" x="90" xlink:href="#mdfb9a37781" y="217.600047"/>
      </g>
     </g>
     <g id="text_8">
      <!-- 475 -->
      <g transform="translate(63.9125 221.399266)scale(0.1 -0.1)">
       <defs>
        <path d="M 8.203125 72.90625 
L 55.078125 72.90625 
L 55.078125 68.703125 
L 28.609375 0 
L 18.3125 0 
L 43.21875 64.59375 
L 8.203125 64.59375 
z
" id="DejaVuSans-55"/>
       </defs>
       <use xlink:href="#DejaVuSans-52"/>
       <use x="63.623047" xlink:href="#DejaVuSans-55"/>
       <use x="127.246094" xlink:href="#DejaVuSans-53"/>
      </g>
     </g>
    </g>
    <g id="ytick_5">
     <g id="line2d_17">
      <path clip-path="url(#p23af18220a)" d="M 90 187.392402 
L 648 187.392402 
" style="fill:none;stroke:#b0b0b0;stroke-linecap:square;stroke-width:0.8;"/>
     </g>
     <g id="line2d_18">
      <g>
       <use style="stroke:#000000;stroke-width:0.8;" x="90" xlink:href="#mdfb9a37781" y="187.392402"/>
      </g>
     </g>
     <g id="text_9">
      <!-- 500 -->
      <g transform="translate(63.9125 191.191621)scale(0.1 -0.1)">
       <use xlink:href="#DejaVuSans-53"/>
       <use x="63.623047" xlink:href="#DejaVuSans-48"/>
       <use x="127.246094" xlink:href="#DejaVuSans-48"/>
      </g>
     </g>
    </g>
    <g id="ytick_6">
     <g id="line2d_19">
      <path clip-path="url(#p23af18220a)" d="M 90 157.184757 
L 648 157.184757 
" style="fill:none;stroke:#b0b0b0;stroke-linecap:square;stroke-width:0.8;"/>
     </g>
     <g id="line2d_20">
      <g>
       <use style="stroke:#000000;stroke-width:0.8;" x="90" xlink:href="#mdfb9a37781" y="157.184757"/>
      </g>
     </g>
     <g id="text_10">
      <!-- 525 -->
      <g transform="translate(63.9125 160.983976)scale(0.1 -0.1)">
       <use xlink:href="#DejaVuSans-53"/>
       <use x="63.623047" xlink:href="#DejaVuSans-50"/>
       <use x="127.246094" xlink:href="#DejaVuSans-53"/>
      </g>
     </g>
    </g>
    <g id="ytick_7">
     <g id="line2d_21">
      <path clip-path="url(#p23af18220a)" d="M 90 126.977112 
L 648 126.977112 
" style="fill:none;stroke:#b0b0b0;stroke-linecap:square;stroke-width:0.8;"/>
     </g>
     <g id="line2d_22">
      <g>
       <use style="stroke:#000000;stroke-width:0.8;" x="90" xlink:href="#mdfb9a37781" y="126.977112"/>
      </g>
     </g>
     <g id="text_11">
      <!-- 550 -->
      <g transform="translate(63.9125 130.776331)scale(0.1 -0.1)">
       <use xlink:href="#DejaVuSans-53"/>
       <use x="63.623047" xlink:href="#DejaVuSans-53"/>
       <use x="127.246094" xlink:href="#DejaVuSans-48"/>
      </g>
     </g>
    </g>
    <g id="ytick_8">
     <g id="line2d_23">
      <path clip-path="url(#p23af18220a)" d="M 90 96.769468 
L 648 96.769468 
" style="fill:none;stroke:#b0b0b0;stroke-linecap:square;stroke-width:0.8;"/>
     </g>
     <g id="line2d_24">
      <g>
       <use style="stroke:#000000;stroke-width:0.8;" x="90" xlink:href="#mdfb9a37781" y="96.769468"/>
      </g>
     </g>
     <g id="text_12">
      <!-- 575 -->
      <g transform="translate(63.9125 100.568686)scale(0.1 -0.1)">
       <use xlink:href="#DejaVuSans-53"/>
       <use x="63.623047" xlink:href="#DejaVuSans-55"/>
       <use x="127.246094" xlink:href="#DejaVuSans-53"/>
      </g>
     </g>
    </g>
    <g id="ytick_9">
     <g id="line2d_25">
      <path clip-path="url(#p23af18220a)" d="M 90 66.561823 
L 648 66.561823 
" style="fill:none;stroke:#b0b0b0;stroke-linecap:square;stroke-width:0.8;"/>
     </g>
     <g id="line2d_26">
      <g>
       <use style="stroke:#000000;stroke-width:0.8;" x="90" xlink:href="#mdfb9a37781" y="66.561823"/>
      </g>
     </g>
     <g id="text_13">
      <!-- 600 -->
      <g transform="translate(63.9125 70.361041)scale(0.1 -0.1)">
       <defs>
        <path d="M 33.015625 40.375 
Q 26.375 40.375 22.484375 35.828125 
Q 18.609375 31.296875 18.609375 23.390625 
Q 18.609375 15.53125 22.484375 10.953125 
Q 26.375 6.390625 33.015625 6.390625 
Q 39.65625 6.390625 43.53125 10.953125 
Q 47.40625 15.53125 47.40625 23.390625 
Q 47.40625 31.296875 43.53125 35.828125 
Q 39.65625 40.375 33.015625 40.375 
z
M 52.59375 71.296875 
L 52.59375 62.3125 
Q 48.875 64.0625 45.09375 64.984375 
Q 41.3125 65.921875 37.59375 65.921875 
Q 27.828125 65.921875 22.671875 59.328125 
Q 17.53125 52.734375 16.796875 39.40625 
Q 19.671875 43.65625 24.015625 45.921875 
Q 28.375 48.1875 33.59375 48.1875 
Q 44.578125 48.1875 50.953125 41.515625 
Q 57.328125 34.859375 57.328125 23.390625 
Q 57.328125 12.15625 50.6875 5.359375 
Q 44.046875 -1.421875 33.015625 -1.421875 
Q 20.359375 -1.421875 13.671875 8.265625 
Q 6.984375 17.96875 6.984375 36.375 
Q 6.984375 53.65625 15.1875 63.9375 
Q 23.390625 74.21875 37.203125 74.21875 
Q 40.921875 74.21875 44.703125 73.484375 
Q 48.484375 72.75 52.59375 71.296875 
z
" id="DejaVuSans-54"/>
       </defs>
       <use xlink:href="#DejaVuSans-54"/>
       <use x="63.623047" xlink:href="#DejaVuSans-48"/>
       <use x="127.246094" xlink:href="#DejaVuSans-48"/>
      </g>
     </g>
    </g>
   </g>
   <g id="line2d_27">
    <path clip-path="url(#p23af18220a)" d="M 115.363636 251.157703 
L 117.060201 246.783265 
L 118.756765 254.783356 
L 120.453329 226.917945 
L 122.149894 242.100461 
L 123.846458 264.477051 
L 125.543022 260.664385 
L 127.239587 262.482404 
L 128.936151 274.93679 
L 130.632715 271.898882 
L 132.329279 271.072592 
L 134.025844 282.18757 
L 135.722408 257.564126 
L 137.418972 279.367111 
L 139.115537 283.16386 
L 140.812101 289.739614 
L 142.508665 272.947018 
L 144.20523 281.340878 
L 145.901794 287.439409 
L 149.294923 302.645455 
L 150.991487 285.414408 
L 152.688051 291.69174 
L 154.384615 282.988567 
L 156.08118 296.909754 
L 157.777744 288.709037 
L 159.474308 286.378172 
L 161.170873 288.07158 
L 162.867437 301.729241 
L 164.564001 298.736603 
L 166.260566 298.61615 
L 167.95713 292.554687 
L 169.653694 291.058129 
L 171.350259 296.328422 
L 173.046823 291.920511 
L 174.743387 293.427798 
L 176.439951 295.958988 
L 178.136516 273.206791 
L 179.83308 268.270623 
L 181.529644 281.591976 
L 183.226209 297.249663 
L 184.922773 284.85566 
L 186.619337 269.584733 
L 188.315902 281.549514 
L 190.012466 279.355112 
L 191.70903 274.558877 
L 193.405594 263.149675 
L 195.102159 277.851835 
L 196.798723 269.391278 
L 198.495287 253.701938 
L 200.191852 265.572647 
L 201.888416 257.277771 
L 203.58498 240.661925 
L 205.281545 238.97838 
L 206.978109 231.978752 
L 208.674673 245.391949 
L 210.371237 228.257766 
L 212.067802 231.472893 
L 213.764366 221.244279 
L 215.46093 206.906344 
L 217.157495 202.955806 
L 218.854059 205.20058 
L 222.247188 213.356933 
L 223.943752 207.020285 
L 225.640316 196.361566 
L 227.336881 201.264027 
L 229.033445 177.061054 
L 230.730009 198.609245 
L 232.426573 178.563692 
L 234.123138 167.011734 
L 235.819702 172.283521 
L 237.516266 170.703004 
L 239.212831 156.880135 
L 240.909395 148.418286 
L 242.605959 145.694168 
L 244.302524 150.810728 
L 245.999088 126.402703 
L 247.695652 135.126936 
L 249.392216 134.551187 
L 251.088781 139.976216 
L 252.785345 139.299119 
L 254.481909 111.640364 
L 256.178474 125.961174 
L 257.875038 109.307936 
L 259.571602 112.22761 
L 261.268167 100.833639 
L 262.964731 115.156426 
L 264.661295 100.423713 
L 266.35786 86.755993 
L 268.054424 89.773493 
L 269.750988 92.149401 
L 271.447552 95.869472 
L 273.144117 86.492175 
L 274.840681 87.786588 
L 276.537245 79.344949 
L 278.23381 74.827324 
L 279.930374 63.705362 
L 281.626938 63.612266 
L 283.323503 75.151295 
L 285.020067 65.229056 
L 286.716631 82.590688 
L 288.413196 74.917399 
L 290.10976 56.708571 
L 291.806324 83.782653 
L 293.502888 59.704748 
L 295.199453 76.504184 
L 296.896017 77.845284 
L 298.592581 62.888255 
L 300.289146 75.485044 
L 301.98571 73.453155 
L 303.682274 68.12015 
L 305.378839 55.554545 
L 307.075403 72.294226 
L 308.771967 67.547319 
L 310.468531 77.459628 
L 312.165096 80.504941 
L 313.86166 78.88721 
L 315.558224 69.69873 
L 317.254789 74.010022 
L 318.951353 77.536219 
L 320.647917 75.941958 
L 322.344482 76.517986 
L 324.041046 95.354026 
L 325.73761 94.408404 
L 327.434174 89.650752 
L 329.130739 100.345769 
L 330.827303 105.762391 
L 332.523867 104.441782 
L 334.220432 93.740204 
L 335.916996 100.567262 
L 337.61356 110.712909 
L 339.310125 111.804236 
L 341.006689 120.470179 
L 342.703253 117.45162 
L 344.399818 109.968785 
L 346.096382 130.722835 
L 347.792946 125.07355 
L 349.48951 139.765167 
L 351.186075 149.440538 
L 352.882639 143.174593 
L 354.579203 150.234084 
L 356.275768 154.861476 
L 357.972332 160.659843 
L 359.668896 156.984448 
L 361.365461 171.961981 
L 363.062025 173.638803 
L 364.758589 179.742029 
L 366.455154 168.928387 
L 368.151718 180.899766 
L 369.848282 191.488929 
L 371.544846 179.804472 
L 373.241411 198.986784 
L 374.937975 205.36543 
L 376.634539 200.810249 
L 378.331104 219.894637 
L 380.027668 216.80654 
L 381.724232 214.91341 
L 383.420797 232.350544 
L 385.117361 226.767781 
L 386.813925 222.678658 
L 388.510489 220.615624 
L 390.207054 240.671446 
L 391.903618 235.520292 
L 393.600182 243.440103 
L 395.296747 243.767441 
L 396.993311 256.145546 
L 398.689875 248.005811 
L 400.38644 254.453476 
L 402.083004 271.263595 
L 403.779568 257.963395 
L 405.476133 274.830194 
L 407.172697 270.658359 
L 408.869261 274.679745 
L 410.565825 265.59566 
L 412.26239 282.372505 
L 413.958954 274.190073 
L 415.655518 259.035551 
L 417.352083 283.719313 
L 419.048647 281.887939 
L 420.745211 288.821792 
L 422.441776 276.740547 
L 424.13834 280.670311 
L 425.834904 285.955281 
L 427.531469 280.960722 
L 429.228033 277.985775 
L 430.924597 284.021381 
L 432.621161 290.637847 
L 434.317726 286.858495 
L 436.01429 297.248011 
L 437.710854 293.003671 
L 439.407419 297.654359 
L 441.103983 294.613764 
L 442.800547 277.640855 
L 444.497112 293.219006 
L 446.193676 297.757988 
L 447.89024 280.816614 
L 449.586805 278.868088 
L 451.283369 285.601275 
L 452.979933 288.126134 
L 454.676497 279.633706 
L 456.373062 260.412127 
L 458.069626 273.695868 
L 459.76619 271.612777 
L 461.462755 267.803882 
L 463.159319 253.298319 
L 464.855883 277.480287 
L 466.552447 267.816342 
L 468.249012 266.102239 
L 469.945576 259.568466 
L 471.642141 279.790601 
L 473.338705 264.944261 
L 475.035269 260.787847 
L 476.731833 235.56188 
L 478.428398 251.563427 
L 480.124962 239.766856 
L 481.821526 243.710509 
L 483.518091 235.355429 
L 485.214655 231.715497 
L 486.911219 224.360133 
L 488.607783 241.13923 
L 490.304348 217.129311 
L 492.000912 213.067114 
L 493.697477 219.987318 
L 495.394041 218.161673 
L 497.090605 208.028009 
L 498.787169 220.611313 
L 500.483734 200.583106 
L 502.180298 208.49742 
L 503.876862 202.654097 
L 505.573427 201.675021 
L 507.269991 187.027638 
L 508.966555 191.05266 
L 510.663119 199.686921 
L 512.359684 177.477962 
L 514.056248 175.064621 
L 515.752813 177.661015 
L 517.449377 181.939694 
L 519.145941 181.417154 
L 520.842505 160.909562 
L 522.53907 175.906373 
L 524.235634 165.665623 
L 525.932198 162.861983 
L 527.628762 161.545092 
L 529.325327 160.55283 
L 531.021891 144.297266 
L 532.718455 160.612988 
L 534.41502 155.788372 
L 536.111584 162.344604 
L 537.808148 145.070045 
L 539.504713 126.050501 
L 541.201277 145.688271 
L 542.897841 132.265407 
L 544.594406 142.386762 
L 546.29097 153.459544 
L 547.987534 136.3891 
L 549.684098 129.938768 
L 551.380663 143.206771 
L 554.773791 126.917672 
L 556.470356 131.446186 
L 558.16692 121.708887 
L 559.863484 134.566614 
L 561.560049 117.649013 
L 563.256613 130.398644 
L 564.953177 131.299421 
L 568.346306 119.016219 
L 570.04287 148.988055 
L 571.739434 123.746382 
L 573.435999 133.3484 
L 575.132563 122.679918 
L 576.829127 130.107771 
L 578.525692 124.805314 
L 580.222256 146.154629 
L 581.91882 137.339065 
L 583.615385 125.691704 
L 585.311949 116.280926 
L 587.008513 134.108966 
L 588.705078 145.955077 
L 590.401642 141.898702 
L 592.098206 132.20239 
L 595.491335 148.229645 
L 597.187899 142.15802 
L 598.884463 130.884076 
L 600.581028 129.254248 
L 602.277592 140.362129 
L 603.974156 155.745691 
L 605.67072 153.516826 
L 607.367285 165.837868 
L 609.063849 147.840454 
L 610.760414 157.039198 
L 612.456978 147.13665 
L 614.153542 143.63798 
L 615.850106 164.938397 
L 617.546671 173.985 
L 619.243235 147.797985 
L 620.939799 158.702424 
L 622.636364 155.703838 
L 622.636364 155.703838 
" style="fill:none;stroke:#0000ff;stroke-linecap:square;stroke-width:1.5;"/>
   </g>
   <g id="line2d_28">
    <path clip-path="url(#p23af18220a)" d="M 115.363636 243.604925 
L 117.060201 248.149654 
L 118.756765 250.915283 
L 120.453329 254.651836 
L 122.149894 251.824308 
L 123.846458 252.061428 
L 125.543022 256.565351 
L 127.239587 259.468633 
L 128.936151 262.10531 
L 130.632715 266.713856 
L 132.329279 269.875957 
L 134.025844 272.19997 
L 135.722408 276.253806 
L 137.418972 274.450702 
L 139.115537 277.041826 
L 140.812101 279.854657 
L 142.508665 283.447388 
L 144.20523 282.894818 
L 145.901794 283.863496 
L 147.598358 285.737882 
L 149.294923 288.778481 
L 150.991487 292.804926 
L 152.688051 292.594237 
L 154.384615 293.470482 
L 156.08118 292.230643 
L 157.777744 293.805379 
L 159.474308 293.330513 
L 161.170873 292.25088 
L 162.867437 291.484877 
L 164.564001 293.501539 
L 166.260566 294.56912 
L 167.95713 295.386909 
L 169.653694 294.757509 
L 171.350259 293.790296 
L 173.046823 293.940427 
L 174.743387 293.098893 
L 176.439951 292.608233 
L 178.136516 292.657767 
L 179.83308 287.959915 
L 181.529644 282.726569 
L 183.226209 280.83725 
L 184.922773 282.455166 
L 186.619337 281.405566 
L 188.315902 277.37323 
L 190.012466 276.335529 
L 191.70903 275.062618 
L 193.405594 273.048906 
L 195.102159 269.012152 
L 196.798723 268.596002 
L 198.495287 266.633158 
L 200.191852 261.791757 
L 201.888416 260.10477 
L 203.58498 257.078897 
L 205.281545 251.139471 
L 206.978109 245.708362 
L 208.674673 239.659294 
L 210.371237 237.317185 
L 212.067802 231.979881 
L 213.764366 228.193341 
L 215.46093 223.026668 
L 218.854059 208.875536 
L 220.550623 203.567736 
L 222.247188 200.118508 
L 223.943752 198.311669 
L 225.640316 195.833252 
L 227.336881 191.853244 
L 229.033445 189.756226 
L 230.730009 183.310367 
L 232.426573 182.462093 
L 234.123138 178.004519 
L 235.819702 172.070215 
L 237.516266 168.311298 
L 239.212831 165.086405 
L 240.909395 159.79966 
L 242.605959 153.779765 
L 244.302524 148.302509 
L 245.999088 144.947278 
L 247.695652 137.372715 
L 249.392216 132.89566 
L 251.088781 129.274816 
L 252.785345 127.662512 
L 254.481909 126.572287 
L 256.178474 120.336219 
L 257.875038 118.189273 
L 259.571602 113.280203 
L 261.268167 109.948545 
L 262.964731 105.059009 
L 264.661295 104.102298 
L 266.35786 100.633668 
L 268.054424 95.121244 
L 269.750988 91.236833 
L 271.447552 88.678057 
L 273.144117 87.576487 
L 274.840681 85.048654 
L 276.537245 83.439372 
L 278.23381 80.619364 
L 279.930374 77.515433 
L 281.626938 72.779406 
L 283.323503 68.866738 
L 285.020067 68.103642 
L 286.716631 65.70177 
L 288.413196 67.473417 
L 290.10976 67.770056 
L 291.806324 64.531721 
L 293.502888 67.501468 
L 295.199453 65.405132 
L 296.896017 67.221742 
L 298.592581 69.318417 
L 300.289146 68.254734 
L 301.98571 70.051036 
L 303.682274 71.355099 
L 305.378839 71.507551 
L 307.075403 69.108736 
L 308.771967 70.49262 
L 310.468531 70.798377 
L 312.165096 73.159715 
L 313.86166 75.918218 
L 315.558224 78.039241 
L 317.254789 77.994959 
L 318.951353 78.795399 
L 320.647917 80.179726 
L 324.041046 81.788405 
L 325.73761 86.291021 
L 327.434174 90.010236 
L 329.130739 92.21079 
L 330.827303 96.235013 
L 332.523867 100.779632 
L 334.220432 104.368622 
L 335.916996 105.134137 
L 337.61356 106.994877 
L 339.310125 110.521626 
L 341.006689 113.65212 
L 342.703253 117.984612 
L 344.399818 120.955974 
L 346.096382 121.768976 
L 347.792946 126.500867 
L 349.48951 129.26245 
L 351.186075 134.4651 
L 352.882639 140.801403 
L 354.579203 144.826113 
L 357.972332 154.312558 
L 359.668896 159.408032 
L 361.365461 162.801567 
L 363.062025 168.52896 
L 366.455154 178.92786 
L 368.151718 181.022775 
L 369.848282 184.925307 
L 371.544846 190.162648 
L 373.241411 191.972293 
L 376.634539 202.580161 
L 378.331104 206.067855 
L 380.027668 212.678603 
L 381.724232 217.483289 
L 383.420797 220.90803 
L 385.117361 227.104748 
L 386.813925 231.007432 
L 388.510489 233.160379 
L 390.207054 234.174382 
L 391.903618 238.771418 
L 393.600182 241.361316 
L 395.296747 244.868424 
L 396.993311 247.631952 
L 398.689875 252.235872 
L 400.38644 254.238755 
L 402.083004 256.94459 
L 403.779568 262.440089 
L 405.476133 264.194003 
L 407.172697 268.856192 
L 410.565825 274.815716 
L 412.26239 275.274638 
L 413.958954 278.792776 
L 415.655518 279.889816 
L 417.352083 277.384737 
L 419.048647 279.942032 
L 420.745211 281.560792 
L 422.441776 284.16753 
L 424.13834 283.727531 
L 425.834904 283.894855 
L 427.531469 284.909735 
L 429.228033 284.570633 
L 430.924597 283.456635 
L 432.621161 283.541007 
L 434.317726 284.841539 
L 436.01429 285.089896 
L 437.710854 287.346047 
L 439.407419 288.375249 
L 441.103983 290.155555 
L 442.800547 291.01958 
L 444.497112 288.179906 
L 446.193676 288.790998 
L 447.89024 290.222994 
L 449.586805 287.941262 
L 451.283369 285.45504 
L 452.979933 284.609516 
L 454.676497 284.380198 
L 456.373062 282.428655 
L 458.069626 276.723668 
L 461.462755 272.023379 
L 463.159319 269.187265 
L 464.855883 263.764266 
L 466.552447 264.072183 
L 469.945576 260.931621 
L 471.642141 258.340984 
L 473.338705 260.403564 
L 475.035269 259.362074 
L 476.731833 257.748613 
L 478.428398 251.258746 
L 480.124962 248.967842 
L 481.821526 244.69519 
L 483.518091 241.924022 
L 486.911219 233.921008 
L 488.607783 229.055631 
L 490.304348 228.472567 
L 493.697477 218.082901 
L 495.394041 215.194943 
L 497.090605 212.567675 
L 498.787169 208.455678 
L 500.483734 207.728983 
L 502.180298 203.272678 
L 503.876862 201.269511 
L 505.573427 198.61476 
L 507.269991 196.381685 
L 508.966555 191.69066 
L 510.663119 188.67298 
L 512.359684 188.114404 
L 514.056248 183.356611 
L 515.752813 178.938773 
L 517.449377 175.87416 
L 519.145941 174.373053 
L 520.842505 173.271196 
L 522.53907 168.371086 
L 524.235634 167.428901 
L 527.628762 162.184134 
L 529.325327 159.891962 
L 531.021891 157.949301 
L 532.718455 153.147802 
L 534.41502 152.538939 
L 536.111584 151.298734 
L 537.808148 151.838341 
L 539.504713 149.01324 
L 541.201277 142.800441 
L 542.897841 141.57641 
L 544.594406 137.97026 
L 546.29097 137.107258 
L 547.987534 138.89342 
L 549.684098 137.196656 
L 551.380663 134.563928 
L 553.077227 135.176258 
L 554.773791 134.296244 
L 556.470356 131.960486 
L 558.16692 130.993755 
L 559.863484 128.289565 
L 561.560049 128.710029 
L 563.256613 125.747323 
L 564.953177 125.898988 
L 566.649742 126.377988 
L 568.346306 125.698531 
L 570.04287 123.921265 
L 571.739434 128.66729 
L 573.435999 127.787478 
L 575.132563 129.069539 
L 576.829127 128.073116 
L 578.525692 128.77744 
L 580.222256 128.356751 
L 581.91882 132.4443 
L 583.615385 134.296048 
L 585.311949 133.532934 
L 587.008513 130.881511 
L 588.705078 132.190509 
L 590.401642 135.804995 
L 592.098206 138.167193 
L 593.79477 138.21627 
L 595.491335 139.897833 
L 597.187899 142.947503 
L 598.884463 144.328645 
L 600.581028 143.122035 
L 602.277592 141.596259 
L 603.974156 142.434457 
L 605.67072 146.278906 
L 607.367285 149.151547 
L 609.063849 154.151468 
L 610.760414 154.749737 
L 612.456978 157.029943 
L 614.153542 156.851631 
L 615.850106 155.797012 
L 617.546671 159.108476 
L 619.243235 163.788232 
L 620.939799 162.370306 
L 622.636364 163.177725 
L 622.636364 163.177725 
" style="fill:none;stroke:#ff0000;stroke-linecap:square;stroke-width:1.5;"/>
   </g>
   <g id="patch_3">
    <path d="M 90 315 
L 90 43.2 
" style="fill:none;stroke:#000000;stroke-linecap:square;stroke-linejoin:miter;stroke-width:0.8;"/>
   </g>
   <g id="patch_4">
    <path d="M 648 315 
L 648 43.2 
" style="fill:none;stroke:#000000;stroke-linecap:square;stroke-linejoin:miter;stroke-width:0.8;"/>
   </g>
   <g id="patch_5">
    <path d="M 90 315 
L 648 315 
" style="fill:none;stroke:#000000;stroke-linecap:square;stroke-linejoin:miter;stroke-width:0.8;"/>
   </g>
   <g id="patch_6">
    <path d="M 90 43.2 
L 648 43.2 
" style="fill:none;stroke:#000000;stroke-linecap:square;stroke-linejoin:miter;stroke-width:0.8;"/>
   </g>
   <g id="legend_1">
    <g id="patch_7">
     <path d="M 559.326563 80.55625 
L 641 80.55625 
Q 643 80.55625 643 78.55625 
L 643 50.2 
Q 643 48.2 641 48.2 
L 559.326563 48.2 
Q 557.326563 48.2 557.326563 50.2 
L 557.326563 78.55625 
Q 557.326563 80.55625 559.326563 80.55625 
z
" style="fill:#ffffff;opacity:0.8;stroke:#cccccc;stroke-linejoin:miter;"/>
    </g>
    <g id="line2d_29">
     <path d="M 561.326563 56.298437 
L 581.326563 56.298437 
" style="fill:none;stroke:#0000ff;stroke-linecap:square;stroke-width:1.5;"/>
    </g>
    <g id="line2d_30"/>
    <g id="text_14">
     <!-- Test -->
     <g transform="translate(589.326563 59.798437)scale(0.1 -0.1)">
      <defs>
       <path d="M -0.296875 72.90625 
L 61.375 72.90625 
L 61.375 64.59375 
L 35.5 64.59375 
L 35.5 0 
L 25.59375 0 
L 25.59375 64.59375 
L -0.296875 64.59375 
z
" id="DejaVuSans-84"/>
       <path d="M 56.203125 29.59375 
L 56.203125 25.203125 
L 14.890625 25.203125 
Q 15.484375 15.921875 20.484375 11.0625 
Q 25.484375 6.203125 34.421875 6.203125 
Q 39.59375 6.203125 44.453125 7.46875 
Q 49.3125 8.734375 54.109375 11.28125 
L 54.109375 2.78125 
Q 49.265625 0.734375 44.1875 -0.34375 
Q 39.109375 -1.421875 33.890625 -1.421875 
Q 20.796875 -1.421875 13.15625 6.1875 
Q 5.515625 13.8125 5.515625 26.8125 
Q 5.515625 40.234375 12.765625 48.109375 
Q 20.015625 56 32.328125 56 
Q 43.359375 56 49.78125 48.890625 
Q 56.203125 41.796875 56.203125 29.59375 
z
M 47.21875 32.234375 
Q 47.125 39.59375 43.09375 43.984375 
Q 39.0625 48.390625 32.421875 48.390625 
Q 24.90625 48.390625 20.390625 44.140625 
Q 15.875 39.890625 15.1875 32.171875 
z
" id="DejaVuSans-101"/>
       <path d="M 44.28125 53.078125 
L 44.28125 44.578125 
Q 40.484375 46.53125 36.375 47.5 
Q 32.28125 48.484375 27.875 48.484375 
Q 21.1875 48.484375 17.84375 46.4375 
Q 14.5 44.390625 14.5 40.28125 
Q 14.5 37.15625 16.890625 35.375 
Q 19.28125 33.59375 26.515625 31.984375 
L 29.59375 31.296875 
Q 39.15625 29.25 43.1875 25.515625 
Q 47.21875 21.78125 47.21875 15.09375 
Q 47.21875 7.46875 41.1875 3.015625 
Q 35.15625 -1.421875 24.609375 -1.421875 
Q 20.21875 -1.421875 15.453125 -0.5625 
Q 10.6875 0.296875 5.421875 2 
L 5.421875 11.28125 
Q 10.40625 8.6875 15.234375 7.390625 
Q 20.0625 6.109375 24.8125 6.109375 
Q 31.15625 6.109375 34.5625 8.28125 
Q 37.984375 10.453125 37.984375 14.40625 
Q 37.984375 18.0625 35.515625 20.015625 
Q 33.0625 21.96875 24.703125 23.78125 
L 21.578125 24.515625 
Q 13.234375 26.265625 9.515625 29.90625 
Q 5.8125 33.546875 5.8125 39.890625 
Q 5.8125 47.609375 11.28125 51.796875 
Q 16.75 56 26.8125 56 
Q 31.78125 56 36.171875 55.265625 
Q 40.578125 54.546875 44.28125 53.078125 
z
" id="DejaVuSans-115"/>
       <path d="M 18.3125 70.21875 
L 18.3125 54.6875 
L 36.8125 54.6875 
L 36.8125 47.703125 
L 18.3125 47.703125 
L 18.3125 18.015625 
Q 18.3125 11.328125 20.140625 9.421875 
Q 21.96875 7.515625 27.59375 7.515625 
L 36.8125 7.515625 
L 36.8125 0 
L 27.59375 0 
Q 17.1875 0 13.234375 3.875 
Q 9.28125 7.765625 9.28125 18.015625 
L 9.28125 47.703125 
L 2.6875 47.703125 
L 2.6875 54.6875 
L 9.28125 54.6875 
L 9.28125 70.21875 
z
" id="DejaVuSans-116"/>
      </defs>
      <use xlink:href="#DejaVuSans-84"/>
      <use x="44.083984" xlink:href="#DejaVuSans-101"/>
      <use x="105.607422" xlink:href="#DejaVuSans-115"/>
      <use x="157.707031" xlink:href="#DejaVuSans-116"/>
     </g>
    </g>
    <g id="line2d_31">
     <path d="M 561.326563 70.976562 
L 581.326563 70.976562 
" style="fill:none;stroke:#ff0000;stroke-linecap:square;stroke-width:1.5;"/>
    </g>
    <g id="line2d_32"/>
    <g id="text_15">
     <!-- Prediction -->
     <g transform="translate(589.326563 74.476562)scale(0.1 -0.1)">
      <defs>
       <path d="M 19.671875 64.796875 
L 19.671875 37.40625 
L 32.078125 37.40625 
Q 38.96875 37.40625 42.71875 40.96875 
Q 46.484375 44.53125 46.484375 51.125 
Q 46.484375 57.671875 42.71875 61.234375 
Q 38.96875 64.796875 32.078125 64.796875 
z
M 9.8125 72.90625 
L 32.078125 72.90625 
Q 44.34375 72.90625 50.609375 67.359375 
Q 56.890625 61.8125 56.890625 51.125 
Q 56.890625 40.328125 50.609375 34.8125 
Q 44.34375 29.296875 32.078125 29.296875 
L 19.671875 29.296875 
L 19.671875 0 
L 9.8125 0 
z
" id="DejaVuSans-80"/>
       <path d="M 41.109375 46.296875 
Q 39.59375 47.171875 37.8125 47.578125 
Q 36.03125 48 33.890625 48 
Q 26.265625 48 22.1875 43.046875 
Q 18.109375 38.09375 18.109375 28.8125 
L 18.109375 0 
L 9.078125 0 
L 9.078125 54.6875 
L 18.109375 54.6875 
L 18.109375 46.1875 
Q 20.953125 51.171875 25.484375 53.578125 
Q 30.03125 56 36.53125 56 
Q 37.453125 56 38.578125 55.875 
Q 39.703125 55.765625 41.0625 55.515625 
z
" id="DejaVuSans-114"/>
       <path d="M 45.40625 46.390625 
L 45.40625 75.984375 
L 54.390625 75.984375 
L 54.390625 0 
L 45.40625 0 
L 45.40625 8.203125 
Q 42.578125 3.328125 38.25 0.953125 
Q 33.9375 -1.421875 27.875 -1.421875 
Q 17.96875 -1.421875 11.734375 6.484375 
Q 5.515625 14.40625 5.515625 27.296875 
Q 5.515625 40.1875 11.734375 48.09375 
Q 17.96875 56 27.875 56 
Q 33.9375 56 38.25 53.625 
Q 42.578125 51.265625 45.40625 46.390625 
z
M 14.796875 27.296875 
Q 14.796875 17.390625 18.875 11.75 
Q 22.953125 6.109375 30.078125 6.109375 
Q 37.203125 6.109375 41.296875 11.75 
Q 45.40625 17.390625 45.40625 27.296875 
Q 45.40625 37.203125 41.296875 42.84375 
Q 37.203125 48.484375 30.078125 48.484375 
Q 22.953125 48.484375 18.875 42.84375 
Q 14.796875 37.203125 14.796875 27.296875 
z
" id="DejaVuSans-100"/>
       <path d="M 9.421875 54.6875 
L 18.40625 54.6875 
L 18.40625 0 
L 9.421875 0 
z
M 9.421875 75.984375 
L 18.40625 75.984375 
L 18.40625 64.59375 
L 9.421875 64.59375 
z
" id="DejaVuSans-105"/>
       <path d="M 48.78125 52.59375 
L 48.78125 44.1875 
Q 44.96875 46.296875 41.140625 47.34375 
Q 37.3125 48.390625 33.40625 48.390625 
Q 24.65625 48.390625 19.8125 42.84375 
Q 14.984375 37.3125 14.984375 27.296875 
Q 14.984375 17.28125 19.8125 11.734375 
Q 24.65625 6.203125 33.40625 6.203125 
Q 37.3125 6.203125 41.140625 7.25 
Q 44.96875 8.296875 48.78125 10.40625 
L 48.78125 2.09375 
Q 45.015625 0.34375 40.984375 -0.53125 
Q 36.96875 -1.421875 32.421875 -1.421875 
Q 20.0625 -1.421875 12.78125 6.34375 
Q 5.515625 14.109375 5.515625 27.296875 
Q 5.515625 40.671875 12.859375 48.328125 
Q 20.21875 56 33.015625 56 
Q 37.15625 56 41.109375 55.140625 
Q 45.0625 54.296875 48.78125 52.59375 
z
" id="DejaVuSans-99"/>
       <path d="M 30.609375 48.390625 
Q 23.390625 48.390625 19.1875 42.75 
Q 14.984375 37.109375 14.984375 27.296875 
Q 14.984375 17.484375 19.15625 11.84375 
Q 23.34375 6.203125 30.609375 6.203125 
Q 37.796875 6.203125 41.984375 11.859375 
Q 46.1875 17.53125 46.1875 27.296875 
Q 46.1875 37.015625 41.984375 42.703125 
Q 37.796875 48.390625 30.609375 48.390625 
z
M 30.609375 56 
Q 42.328125 56 49.015625 48.375 
Q 55.71875 40.765625 55.71875 27.296875 
Q 55.71875 13.875 49.015625 6.21875 
Q 42.328125 -1.421875 30.609375 -1.421875 
Q 18.84375 -1.421875 12.171875 6.21875 
Q 5.515625 13.875 5.515625 27.296875 
Q 5.515625 40.765625 12.171875 48.375 
Q 18.84375 56 30.609375 56 
z
" id="DejaVuSans-111"/>
       <path d="M 54.890625 33.015625 
L 54.890625 0 
L 45.90625 0 
L 45.90625 32.71875 
Q 45.90625 40.484375 42.875 44.328125 
Q 39.84375 48.1875 33.796875 48.1875 
Q 26.515625 48.1875 22.3125 43.546875 
Q 18.109375 38.921875 18.109375 30.90625 
L 18.109375 0 
L 9.078125 0 
L 9.078125 54.6875 
L 18.109375 54.6875 
L 18.109375 46.1875 
Q 21.34375 51.125 25.703125 53.5625 
Q 30.078125 56 35.796875 56 
Q 45.21875 56 50.046875 50.171875 
Q 54.890625 44.34375 54.890625 33.015625 
z
" id="DejaVuSans-110"/>
      </defs>
      <use xlink:href="#DejaVuSans-80"/>
      <use x="58.552734" xlink:href="#DejaVuSans-114"/>
      <use x="97.416016" xlink:href="#DejaVuSans-101"/>
      <use x="158.939453" xlink:href="#DejaVuSans-100"/>
      <use x="222.416016" xlink:href="#DejaVuSans-105"/>
      <use x="250.199219" xlink:href="#DejaVuSans-99"/>
      <use x="305.179688" xlink:href="#DejaVuSans-116"/>
      <use x="344.388672" xlink:href="#DejaVuSans-105"/>
      <use x="372.171875" xlink:href="#DejaVuSans-111"/>
      <use x="433.353516" xlink:href="#DejaVuSans-110"/>
     </g>
    </g>
   </g>
  </g>
 </g>
 <defs>
  <clipPath id="p23af18220a">
   <rect height="271.8" width="558" x="90" y="43.2"/>
  </clipPath>
 </defs>
</svg>
